<?xml version="1.0" encoding="UTF-8"?>
<svg width="1438px" height="433px" viewBox="0 0 1438 433" version="1.1" xmlns="http://www.w3.org/2000/svg" xmlns:xlink="http://www.w3.org/1999/xlink">
    <!-- Generator: Sketch 50.2 (55047) - http://www.bohemiancoding.com/sketch -->
    <title>hills</title>
    <desc>Created with Sketch.</desc>
    <defs>
        <linearGradient x1="31.669258%" y1="-9.21335019%" x2="100%" y2="50%" id="linearGradient-1">
            <stop stop-color="#CFDDF3" offset="0%"></stop>
            <stop stop-color="#A1B8E3" offset="100%"></stop>
        </linearGradient>
        <linearGradient x1="50%" y1="0%" x2="50%" y2="100%" id="linearGradient-2">
            <stop stop-color="#CFDDF3" offset="0%"></stop>
            <stop stop-color="#A1B8E3" offset="100%"></stop>
        </linearGradient>
        <linearGradient x1="227.604499%" y1="-30.2653238%" x2="50%" y2="100%" id="linearGradient-3">
            <stop stop-color="#CFDDF3" offset="0%"></stop>
            <stop stop-color="#A1B8E3" offset="100%"></stop>
        </linearGradient>
        <linearGradient x1="12.0299736%" y1="-13.8706909%" x2="20.148299%" y2="104.636122%" id="linearGradient-4">
            <stop stop-color="#FFFFFF" offset="0%"></stop>
            <stop stop-color="#D6E3FA" offset="100%"></stop>
        </linearGradient>
        <linearGradient x1="50%" y1="56.8726641%" x2="50%" y2="-97.5239132%" id="linearGradient-5">
            <stop stop-color="#FFFFFF" offset="0%"></stop>
            <stop stop-color="#D6E3FA" offset="100%"></stop>
        </linearGradient>
    </defs>
    <g id="Page-1" stroke="none" stroke-width="1" fill="none" fill-rule="evenodd">
        <g id="Desktop-HD" transform="translate(-1.000000, -371.000000)">
            <g id="hills" transform="translate(1.000000, 366.000000)">
                <g id="tree" opacity="0.205803571" transform="translate(1092.360473, 95.297145) rotate(-1.000000) translate(-1092.360473, -95.297145) translate(1077.191145, 59.647805)">
                    <path d="M23.3979577,61.1016033 C21.6881823,62.503506 15.1859163,59.6997005 12.6079136,55.3476808 C10.0299109,50.9956611 14.8121103,49.4465681 8.30746993,42.4860825 C1.80282959,35.525597 -2.37092285,32.8598779 1.57649294,21.3867465 C5.52390873,9.91361504 0.0705901819,3.5373833 7.27611172,0.544103827 C14.4816333,-2.44917565 18.6312687,7.48518237 17.8047579,16.2234543 C16.978247,24.9617262 18.6687372,26.7727088 25.7166707,25.8672175 C32.7646042,24.9617262 26.8225422,37.7902857 26.8225422,40.5905163 C26.8225422,43.3907469 31.0961543,48.5918317 30.2095836,52.5049024 C29.323013,56.4179731 25.1077331,59.6997005 23.3979577,61.1016033 Z" id="leaves" fill="url(#linearGradient-1)"></path>
                    <path d="M19.2814509,48.9027176 C19.2814509,46.7534682 19.8673091,40.0569578 23.054316,35.9787433" id="branch" stroke="url(#linearGradient-2)" stroke-width="6" stroke-linecap="round"></path>
                    <path d="M4.60147791,36.3617778 C4.60147791,34.2125284 11.1119684,32.7036403 14.2989753,28.6254258" id="branch" stroke="url(#linearGradient-2)" stroke-width="6" stroke-linecap="round" transform="translate(9.450227, 32.493602) scale(-1, 1) translate(-9.450227, -32.493602) "></path>
                    <path d="M27.237839,71.168281 C27.237839,70.2538541 25.5387401,66.1317672 23.9151432,61.3558845 C18.8308906,46.4003293 10.6353837,27.9841688 10.6353837,15.2225235" id="stem" stroke="url(#linearGradient-2)" stroke-width="6" stroke-linecap="round"></path>
                </g>
                <g id="plant" transform="translate(228.913377, 75.482422) rotate(-7.000000) translate(-228.913377, -75.482422) translate(187.695018, 5.412257)">
                    <path d="M19.9389231,139.926431 C19.9389231,121.702893 34.5673538,65.3068941 54.3129258,34.4483404" id="stem" stroke="url(#linearGradient-2)" stroke-width="6" stroke-linecap="round"></path>
                    <path d="M37.2075548,45.2505596 C40.5908859,40.300793 42.2825515,34.7729865 42.2825515,28.66714 C42.2825515,19.5083703 40.0103981,12.0837204 37.2075548,12.0837204 C34.4047115,12.0837204 32.1325581,19.5083703 32.1325581,28.66714 C32.1325581,34.7729865 33.8242236,40.300793 37.2075548,45.2505596 Z" id="leaf" fill="url(#linearGradient-3)" transform="translate(37.207555, 28.667140) rotate(-30.000000) translate(-37.207555, -28.667140) "></path>
                    <path d="M66.1423709,62.1710921 C69.5257021,57.2213256 71.2173677,51.693519 71.2173677,45.5876725 C71.2173677,36.4289028 68.9452142,29.0042529 66.1423709,29.0042529 C63.3395277,29.0042529 61.0673742,36.4289028 61.0673742,45.5876725 C61.0673742,51.693519 62.7590398,57.2213256 66.1423709,62.1710921 Z" id="leaf" fill="url(#linearGradient-3)" transform="translate(66.142371, 45.587673) rotate(88.000000) translate(-66.142371, -45.587673) "></path>
                    <path d="M56.6923771,86.2261623 C60.0757082,81.2763957 61.7673738,75.7485892 61.7673738,69.6427427 C61.7673738,60.483973 59.4952204,53.0593231 56.6923771,53.0593231 C53.8895338,53.0593231 51.6173804,60.483973 51.6173804,69.6427427 C51.6173804,75.7485892 53.3090459,81.2763957 56.6923771,86.2261623 Z" id="leaf" fill="url(#linearGradient-3)" transform="translate(56.692377, 69.642743) rotate(91.000000) translate(-56.692377, -69.642743) "></path>
                    <path d="M48.9916069,109.553297 C52.374938,104.60353 54.0666036,99.0757238 54.0666036,92.9698773 C54.0666036,83.8111076 51.7944502,76.3864577 48.9916069,76.3864577 C46.1887636,76.3864577 43.9166102,83.8111076 43.9166102,92.9698773 C43.9166102,99.0757238 45.6082757,104.60353 48.9916069,109.553297 Z" id="leaf" fill="url(#linearGradient-3)" transform="translate(48.991607, 92.969877) rotate(91.000000) translate(-48.991607, -92.969877) "></path>
                    <path d="M64.6592463,33.6497397 C68.0425774,28.6999731 69.734243,23.1721666 69.734243,17.0663201 C69.734243,7.90755035 67.4620895,0.482900493 64.6592463,0.482900493 C61.856403,0.482900493 59.5842496,7.90755035 59.5842496,17.0663201 C59.5842496,23.1721666 61.2759151,28.6999731 64.6592463,33.6497397 Z" id="leaf" fill="url(#linearGradient-3)" transform="translate(64.659246, 17.066320) rotate(33.000000) translate(-64.659246, -17.066320) "></path>
                    <path d="M24.6165898,70.6982068 C27.999921,65.7484402 29.6915865,60.2206337 29.6915865,54.1147872 C29.6915865,44.9560174 27.4194331,37.5313676 24.6165898,37.5313676 C21.8137465,37.5313676 19.5415931,44.9560174 19.5415931,54.1147872 C19.5415931,60.2206337 21.2332587,65.7484402 24.6165898,70.6982068 Z" id="leaf" fill="url(#linearGradient-3)" transform="translate(24.616590, 54.114787) rotate(-41.000000) translate(-24.616590, -54.114787) "></path>
                    <path d="M15.1665959,96.21116 C18.5499271,91.2613934 20.2415927,85.7335869 20.2415927,79.6277404 C20.2415927,70.4689707 17.9694392,63.0443208 15.1665959,63.0443208 C12.3637527,63.0443208 10.0915992,70.4689707 10.0915992,79.6277404 C10.0915992,85.7335869 11.7832648,91.2613934 15.1665959,96.21116 Z" id="leaf" fill="url(#linearGradient-3)" transform="translate(15.166596, 79.627740) rotate(-47.000000) translate(-15.166596, -79.627740) "></path>
                </g>
                <g id="plant" opacity="0.200000003" transform="translate(198.682620, 105.063080) rotate(-38.000000) translate(-198.682620, -105.063080) translate(165.432641, 48.484811)">
                    <path d="M16.1208314,113.132008 C16.1208314,98.3980834 27.9480733,52.8013186 43.9125783,27.8518497" id="stem" stroke="#A1B8E3" stroke-width="6" stroke-linecap="round"></path>
                    <path d="M30.0827039,36.5855588 C32.8181631,32.5836199 34.1858927,28.1143295 34.1858927,23.1776877 C34.1858927,15.7727249 32.3488325,9.76981649 30.0827039,9.76981649 C27.8165753,9.76981649 25.979515,15.7727249 25.979515,23.1776877 C25.979515,28.1143295 27.3472446,32.5836199 30.0827039,36.5855588 Z" id="leaf" fill="#A1B8E3" transform="translate(30.082704, 23.177688) rotate(-30.000000) translate(-30.082704, -23.177688) "></path>
                    <path d="M53.4768106,50.2659894 C56.2122698,46.2640504 57.5799994,41.7947601 57.5799994,36.8581182 C57.5799994,29.4531554 55.7429392,23.4502471 53.4768106,23.4502471 C51.2106819,23.4502471 49.3736217,29.4531554 49.3736217,36.8581182 C49.3736217,41.7947601 50.7413513,46.2640504 53.4768106,50.2659894 Z" id="leaf" fill="#A1B8E3" transform="translate(53.476811, 36.858118) rotate(88.000000) translate(-53.476811, -36.858118) "></path>
                    <path d="M45.83639,69.7147695 C48.5718492,65.7128306 49.9395788,61.2435402 49.9395788,56.3068984 C49.9395788,48.9019356 48.1025186,42.8990272 45.83639,42.8990272 C43.5702614,42.8990272 41.7332012,48.9019356 41.7332012,56.3068984 C41.7332012,61.2435402 43.1009308,65.7128306 45.83639,69.7147695 Z" id="leaf" fill="#A1B8E3" transform="translate(45.836390, 56.306898) rotate(91.000000) translate(-45.836390, -56.306898) "></path>
                    <path d="M39.6102354,88.575006 C42.3456946,84.5730671 43.7134242,80.1037767 43.7134242,75.1671349 C43.7134242,67.7621721 41.876364,61.7592637 39.6102354,61.7592637 C37.3441067,61.7592637 35.5070465,67.7621721 35.5070465,75.1671349 C35.5070465,80.1037767 36.8747761,84.5730671 39.6102354,88.575006 Z" id="leaf" fill="#A1B8E3" transform="translate(39.610235, 75.167135) rotate(91.000000) translate(-39.610235, -75.167135) "></path>
                    <path d="M52.2776885,27.2061725 C55.0131477,23.2042336 56.3808773,18.7349432 56.3808773,13.7983013 C56.3808773,6.39333858 54.5438171,0.390430186 52.2776885,0.390430186 C50.0115599,0.390430186 48.1744996,6.39333858 48.1744996,13.7983013 C48.1744996,18.7349432 49.5422292,23.2042336 52.2776885,27.2061725 Z" id="leaf" fill="#A1B8E3" transform="translate(52.277688, 13.798301) rotate(33.000000) translate(-52.277688, -13.798301) "></path>
                    <path d="M19.9027747,57.1602523 C22.638234,53.1583134 24.0059636,48.689023 24.0059636,43.7523811 C24.0059636,36.3474184 22.1689034,30.34451 19.9027747,30.34451 C17.6366461,30.34451 15.7995859,36.3474184 15.7995859,43.7523811 C15.7995859,48.689023 17.1673155,53.1583134 19.9027747,57.1602523 Z" id="leaf" fill="#A1B8E3" transform="translate(19.902775, 43.752381) rotate(-41.000000) translate(-19.902775, -43.752381) "></path>
                    <path d="M12.2623542,77.7877464 C14.9978134,73.7858075 16.365543,69.3165171 16.365543,64.3798752 C16.365543,56.9749124 14.5284828,50.9720041 12.2623542,50.9720041 C9.99622556,50.9720041 8.15916535,56.9749124 8.15916535,64.3798752 C8.15916535,69.3165171 9.52689495,73.7858075 12.2623542,77.7877464 Z" id="leaf" fill="#A1B8E3" transform="translate(12.262354, 64.379875) rotate(-47.000000) translate(-12.262354, -64.379875) "></path>
                </g>
                <path d="M0,221.143441 C75.6928701,192.416125 268.507461,124.079833 438.06421,124.079833 C607.620959,124.079833 817.806824,234.691466 953.446979,247.243699 C1043.87375,255.611854 1205.39142,262.693776 1438,268.489465 L1438,437.079833 L0,437.079833 C0,366.531396 0,294.552599 0,221.143441 Z" id="ground" fill="url(#linearGradient-4)" transform="translate(719.000000, 280.579833) scale(-1, 1) translate(-719.000000, -280.579833) "></path>
                <path d="M0,221.143441 C75.6928701,192.416125 268.507461,124.079833 438.06421,124.079833 C607.620959,124.079833 817.806824,234.691466 953.446979,247.243699 C1043.87375,255.611854 1205.39142,262.693776 1438,268.489465 L1438,437.079833 L0,437.079833 C0,366.531396 0,294.552599 0,221.143441 Z" id="ground" fill="url(#linearGradient-5)"></path>
                <g id="tree" opacity="0.821875" transform="translate(1122.049194, 85.262812) rotate(18.000000) translate(-1122.049194, -85.262812) translate(1099.549194, 32.762812)">
                    <path d="M34.2546101,89.4527472 C31.7514988,91.5051328 22.2321815,87.4003615 18.4579855,81.0290047 C14.6837896,74.6576479 21.6849294,72.3897757 12.162136,62.1996248 C2.63934252,52.0094739 -3.47103106,48.1068613 2.30798566,31.3101969 C8.08700239,14.5135324 0.103344026,5.17872915 10.6522276,0.796568003 C21.2011111,-3.58559315 27.2761774,10.958307 26.0661655,23.7511371 C24.8561536,36.5439672 27.3310313,39.1952457 37.6492059,37.8696065 C47.9673805,36.5439672 39.2682018,55.3249783 39.2682018,59.4245158 C39.2682018,63.5240534 45.5247698,71.1384416 44.2268304,76.8671771 C42.928891,82.5959126 36.7577213,87.4003615 34.2546101,89.4527472 Z" id="leaves" fill="url(#linearGradient-1)"></path>
                    <path d="M28.2280441,71.5935786 C28.2280441,68.4470775 29.0857405,58.6433862 33.7515186,52.6728801" id="branch" stroke="url(#linearGradient-2)" stroke-width="6" stroke-linecap="round"></path>
                    <path d="M6.73656365,53.2336427 C6.73656365,50.0871416 16.2679218,47.8781294 20.9336999,41.9076234" id="branch" stroke="url(#linearGradient-2)" stroke-width="6" stroke-linecap="round" transform="translate(13.835132, 47.570633) scale(-1, 1) translate(-13.835132, -47.570633) "></path>
                    <path d="M39.8761963,104.190363 C39.8761963,102.851642 37.3887156,96.8169072 35.0117697,89.825015 C27.5684238,67.930082 15.5702018,40.9688231 15.5702018,22.2857744" id="stem" stroke="url(#linearGradient-2)" stroke-width="6" stroke-linecap="round"></path>
                </g>
            </g>
        </g>
    </g>
</svg>