<?xml version="1.0" encoding="UTF-8"?>
<svg width="1122px" height="106px" viewBox="0 0 1122 106" version="1.1" xmlns="http://www.w3.org/2000/svg" xmlns:xlink="http://www.w3.org/1999/xlink">
    <!-- Generator: Sketch 50.2 (55047) - http://www.bohemiancoding.com/sketch -->
    <title>Group 34</title>
    <desc>Created with Sketch.</desc>
    <defs>
        <linearGradient x1="100%" y1="100%" x2="27.9339743%" y2="50%" id="linearGradient-1">
            <stop stop-color="#CEE0FB" offset="0%"></stop>
            <stop stop-color="#E4EDFB" offset="100%"></stop>
        </linearGradient>
        <path d="M40.8456315,0.994753229 C42.1822078,3.32916549 42.9308115,5.94464293 42.9308115,8.70660194 C42.9308115,18.5681361 33.3867408,26.5625003 21.6134579,26.5625003 C9.84017513,26.5625003 0.296104374,18.5681361 0.296104374,8.70660194 C0.296104374,5.78387311 1.13440395,3.02513701 2.620675,0.589954896 C12.0642,2.08028528 30.8608624,1.98426922 40.8456315,0.994753229 Z" id="path-2"></path>
        <linearGradient x1="50%" y1="0%" x2="50%" y2="100%" id="linearGradient-4">
            <stop stop-color="#99BAE9" offset="0%"></stop>
            <stop stop-color="#BCD0F2" offset="100%"></stop>
        </linearGradient>
        <path d="M19.9850467,0.295148333 C30.6954729,0.295148333 39.3779365,2.34327557 39.3779365,4.86979167 C39.3779365,7.39630776 30.6954729,9.444435 19.9850467,9.444435 C9.27462052,9.444435 0.592116964,7.39630776 0.592116964,4.86979167 C0.592116964,2.34327557 9.27462052,0.295148333 19.9850467,0.295148333 Z" id="path-5"></path>
        <linearGradient x1="34.2329692%" y1="5.04199562%" x2="78.6018941%" y2="100%" id="linearGradient-7">
            <stop stop-color="#B1FFBE" offset="0%"></stop>
            <stop stop-color="#5CDB8E" offset="44.420721%"></stop>
            <stop stop-color="#149654" offset="100%"></stop>
        </linearGradient>
        <path d="M18.9487661,54.3055384 C17.8896984,46.9997814 14.9762922,36.4499001 6.21756388,25.086792 C1.05807085,18.3931783 1.04123159,2.09273896 0.296101413,0.29512 C4.34466182,1.68294156 11.6174945,5.26033833 18.9487661,15.3472281 C26.6340123,25.921044 21.7586042,47.4852252 18.9487661,54.3055384 Z" id="path-8"></path>
        <filter x="-50.5%" y="-21.3%" width="201.0%" height="142.6%" filterUnits="objectBoundingBox" id="filter-10">
            <feGaussianBlur stdDeviation="6.5" in="SourceAlpha" result="shadowBlurInner1"></feGaussianBlur>
            <feOffset dx="0" dy="-10" in="shadowBlurInner1" result="shadowOffsetInner1"></feOffset>
            <feComposite in="shadowOffsetInner1" in2="SourceAlpha" operator="arithmetic" k2="-1" k3="1" result="shadowInnerInner1"></feComposite>
            <feColorMatrix values="0 0 0 0 0.221483195   0 0 0 0 0.778539541   0 0 0 0 0.473229813  0 0 0 1 0" type="matrix" in="shadowInnerInner1"></feColorMatrix>
        </filter>
        <linearGradient x1="78.6009371%" y1="-9.30161748%" x2="90.360851%" y2="88.8160124%" id="linearGradient-11">
            <stop stop-color="#B1FFBE" offset="0%"></stop>
            <stop stop-color="#5CDB8E" offset="44.420721%"></stop>
            <stop stop-color="#149654" offset="100%"></stop>
        </linearGradient>
        <path d="M32.8969899,35.5371618 C29.625083,30.3203677 23.8442102,23.2506202 13.3287146,17.5183147 C7.13435347,14.1415834 1.62451132,1.71634302 0.449688126,0.595050764 C4.00704539,0.297525382 10.7631403,0.590009792 19.759044,5.82714785 C29.1892124,11.3170547 32.7410159,29.3949172 32.8969899,35.5371618 Z" id="path-12"></path>
        <filter x="-35.4%" y="-32.8%" width="170.9%" height="165.7%" filterUnits="objectBoundingBox" id="filter-14">
            <feGaussianBlur stdDeviation="6.5" in="SourceAlpha" result="shadowBlurInner1"></feGaussianBlur>
            <feOffset dx="0" dy="-10" in="shadowBlurInner1" result="shadowOffsetInner1"></feOffset>
            <feComposite in="shadowOffsetInner1" in2="SourceAlpha" operator="arithmetic" k2="-1" k3="1" result="shadowInnerInner1"></feComposite>
            <feColorMatrix values="0 0 0 0 0.221483195   0 0 0 0 0.778539541   0 0 0 0 0.473229813  0 0 0 1 0" type="matrix" in="shadowInnerInner1"></feColorMatrix>
        </filter>
        <path d="M0.558220797,39.4985836 C3.13803452,33.8834836 7.97576415,26.1008039 17.7036322,19.0411289 C23.4340113,14.8825172 27.3045526,1.80209297 28.3287516,0.53454375 C24.7466345,0.695592187 18.0552225,1.85536406 9.77651013,8.22657891 C1.09816613,14.9053875 -0.0861317503,33.3625266 0.558220797,39.4985836 Z" id="path-15"></path>
        <filter x="-41.2%" y="-29.5%" width="182.4%" height="159.0%" filterUnits="objectBoundingBox" id="filter-17">
            <feGaussianBlur stdDeviation="6.5" in="SourceAlpha" result="shadowBlurInner1"></feGaussianBlur>
            <feOffset dx="0" dy="-10" in="shadowBlurInner1" result="shadowOffsetInner1"></feOffset>
            <feComposite in="shadowOffsetInner1" in2="SourceAlpha" operator="arithmetic" k2="-1" k3="1" result="shadowInnerInner1"></feComposite>
            <feColorMatrix values="0 0 0 0 0.221483195   0 0 0 0 0.778539541   0 0 0 0 0.473229813  0 0 0 1 0" type="matrix" in="shadowInnerInner1"></feColorMatrix>
        </filter>
        <path d="M42.5475329,1.04825256 C43.9397998,3.50821304 44.7195953,6.26435482 44.7195953,9.17485617 C44.7195953,19.5667585 34.777855,27.9910717 22.5140187,27.9910717 C10.2501824,27.9910717 0.308442056,19.5667585 0.308442056,9.17485617 C0.308442056,6.09493855 1.18167079,3.18783346 2.72986979,0.621683563 C12.566875,2.19216617 32.1467316,2.09098622 42.5475329,1.04825256 Z" id="path-18"></path>
        <path d="M20.817757,0.311021857 C31.974451,0.311021857 41.0186839,2.46930048 41.0186839,5.13169643 C41.0186839,7.79409238 31.974451,9.952371 20.817757,9.952371 C9.66106304,9.952371 0.616788505,7.79409238 0.616788505,5.13169643 C0.616788505,2.46930048 9.66106304,0.311021857 20.817757,0.311021857 Z" id="path-20"></path>
        <path d="M14.9991716,59.6930912 C13.9012799,52.1088228 10.8810721,41.1567572 1.80126063,29.3604627 C-3.54737247,22.4116739 7.28362931,2.34846901 6.51118366,0.482320917 C10.7081588,1.92304925 10.7081588,12.7244608 14.9991716,23.3804307 C19.2901843,34.0364006 17.9120145,52.6127728 14.9991716,59.6930912 Z" id="path-22"></path>
        <filter x="-66.0%" y="-19.4%" width="232.1%" height="138.8%" filterUnits="objectBoundingBox" id="filter-24">
            <feGaussianBlur stdDeviation="6.5" in="SourceAlpha" result="shadowBlurInner1"></feGaussianBlur>
            <feOffset dx="0" dy="-10" in="shadowBlurInner1" result="shadowOffsetInner1"></feOffset>
            <feComposite in="shadowOffsetInner1" in2="SourceAlpha" operator="arithmetic" k2="-1" k3="1" result="shadowInnerInner1"></feComposite>
            <feColorMatrix values="0 0 0 0 0.221483195   0 0 0 0 0.778539541   0 0 0 0 0.473229813  0 0 0 1 0" type="matrix" in="shadowInnerInner1"></feColorMatrix>
        </filter>
        <path d="M34.1029492,36.8919156 C30.7110987,31.476246 28.242438,24.6406372 17.3414585,18.6898037 C10.9200205,15.1843441 1.68406372,1.78177374 0.466173087,0.617735391 C4.15393828,0.308867696 11.1577025,0.612502246 20.4833839,6.04929138 C30.2592496,11.7484854 33.9412575,30.5155153 34.1029492,36.8919156 Z" id="path-25"></path>
        <filter x="-34.2%" y="-31.6%" width="168.4%" height="163.3%" filterUnits="objectBoundingBox" id="filter-27">
            <feGaussianBlur stdDeviation="6.5" in="SourceAlpha" result="shadowBlurInner1"></feGaussianBlur>
            <feOffset dx="0" dy="-10" in="shadowBlurInner1" result="shadowOffsetInner1"></feOffset>
            <feComposite in="shadowOffsetInner1" in2="SourceAlpha" operator="arithmetic" k2="-1" k3="1" result="shadowInnerInner1"></feComposite>
            <feColorMatrix values="0 0 0 0 0.221483195   0 0 0 0 0.778539541   0 0 0 0 0.473229813  0 0 0 1 0" type="matrix" in="shadowInnerInner1"></feColorMatrix>
        </filter>
        <path d="M0.57868442,51.61974 C3.25307064,45.7905802 8.26814493,37.7112079 18.3526235,30.3824027 C24.2930706,26.0652557 22.2280918,1.8369433 23.2898366,0.521072347 C19.5764039,0.688260301 18.7171026,12.5414792 10.1349038,19.1555786 C1.13842342,26.0889979 -0.0892892243,45.2497632 0.57868442,51.61974 Z" id="path-28"></path>
        <filter x="-50.3%" y="-22.5%" width="200.6%" height="145.0%" filterUnits="objectBoundingBox" id="filter-30">
            <feGaussianBlur stdDeviation="6.5" in="SourceAlpha" result="shadowBlurInner1"></feGaussianBlur>
            <feOffset dx="0" dy="-10" in="shadowBlurInner1" result="shadowOffsetInner1"></feOffset>
            <feComposite in="shadowOffsetInner1" in2="SourceAlpha" operator="arithmetic" k2="-1" k3="1" result="shadowInnerInner1"></feComposite>
            <feColorMatrix values="0 0 0 0 0.221483195   0 0 0 0 0.778539541   0 0 0 0 0.473229813  0 0 0 1 0" type="matrix" in="shadowInnerInner1"></feColorMatrix>
        </filter>
        <path d="M0.0888518202,19.9038462 C1.64092737,16.4980029 12.1367915,13.6007629 17.9893017,9.31871159 C21.4368301,6.79630247 32.1561074,0.618396494 32.1561074,0.618396494 C32.1561074,0.618396494 22.9699663,-0.61033721 17.9893017,3.25412803 C12.7682094,7.3051645 -0.298805561,16.1820161 0.0888518202,19.9038462 Z" id="path-31"></path>
        <filter x="-35.9%" y="-59.1%" width="171.7%" height="218.1%" filterUnits="objectBoundingBox" id="filter-33">
            <feGaussianBlur stdDeviation="6.5" in="SourceAlpha" result="shadowBlurInner1"></feGaussianBlur>
            <feOffset dx="0" dy="-10" in="shadowBlurInner1" result="shadowOffsetInner1"></feOffset>
            <feComposite in="shadowOffsetInner1" in2="SourceAlpha" operator="arithmetic" k2="-1" k3="1" result="shadowInnerInner1"></feComposite>
            <feColorMatrix values="0 0 0 0 0.221483195   0 0 0 0 0.778539541   0 0 0 0 0.473229813  0 0 0 1 0" type="matrix" in="shadowInnerInner1"></feColorMatrix>
        </filter>
    </defs>
    <g id="Page-1" stroke="none" stroke-width="1" fill="none" fill-rule="evenodd">
        <g id="Home" transform="translate(-277.000000, -5067.000000)">
            <g id="customers" transform="translate(-30.000000, 4769.000000)">
                <g id="Group-19" transform="translate(307.000000, 298.000000)">
                    <g id="Group-34">
                        <g id="Plant" transform="translate(0.000000, 21.000000)">
                            <g id="Pot" transform="translate(12.139065, 53.420139)">
                                <path d="M21.6134579,22.1354114 C33.3866975,22.1354114 42.9308115,24.1835584 42.9308115,26.7100706 C42.9308115,29.2365929 33.3866975,31.2847199 21.6134579,31.2847199 C9.84017513,31.2847199 0.296061147,29.2365929 0.296061147,26.7100706 C0.296061147,24.1835584 9.84017513,22.1354114 21.6134579,22.1354114 Z" id="shadow" fill="#BBCFF2" opacity="0.2"></path>
                                <g id="Ellipse-2" transform="translate(0.592150, 3.246528)">
                                    <mask id="mask-3" fill="white">
                                        <use xlink:href="#path-2"></use>
                                    </mask>
                                    <use fill="url(#linearGradient-1)" xlink:href="#path-2"></use>
                                </g>
                                <g id="Ellipse-1" transform="translate(2.368598, 0.000000)">
                                    <mask id="mask-6" fill="white">
                                        <use xlink:href="#path-5"></use>
                                    </mask>
                                    <use fill="url(#linearGradient-4)" xlink:href="#path-5"></use>
                                </g>
                            </g>
                            <g id="leaves">
                                <g id="leaf">
                                    <g transform="translate(13.915514, 0.000000)">
                                        <g id="Shape-2">
                                            <mask id="mask-9" fill="white">
                                                <use xlink:href="#path-8"></use>
                                            </mask>
                                            <g>
                                                <use fill="url(#linearGradient-7)" fill-rule="evenodd" xlink:href="#path-8"></use>
                                                <use fill="black" fill-opacity="1" filter="url(#filter-10)" xlink:href="#path-8"></use>
                                            </g>
                                            <path d="M14.1396018,25.7830595 L11.7362562,14.445886 L9.01642886,15.5824267 C11.1674522,18.8460412 12.8599663,22.1768122 14.1396018,25.7830595 Z M16.9171198,38.8852963 C17.3542361,43.4112613 17.4173708,48.4559903 17.1542524,54.2373793 L20.1200922,53.9945063 L16.9171198,38.8852963 Z" id="Shape-3" stroke="#489C71" stroke-width="3" fill-opacity="0" fill="#000000" opacity="0.5" style="mix-blend-mode: multiply;" mask="url(#mask-9)"></path>
                                        </g>
                                    </g>
                                    <g transform="translate(0.000000, 26.267361)">
                                        <g id="Shape-2">
                                            <mask id="mask-13" fill="white">
                                                <use xlink:href="#path-12"></use>
                                            </mask>
                                            <g>
                                                <use fill="url(#linearGradient-11)" fill-rule="evenodd" xlink:href="#path-12"></use>
                                                <use fill="black" fill-opacity="1" filter="url(#filter-14)" xlink:href="#path-12"></use>
                                            </g>
                                            <path d="M31.2730379,36.1799923 L33.8874853,34.7586684 L14.1530149,7.40621676 L12.1235525,9.54442056 C20.6009625,15.0120943 25.9332557,22.4492868 31.2730379,36.1799923 Z" id="Shape-3" stroke="#489C71" stroke-width="3" fill-opacity="0" fill="#000000" opacity="0.5" style="mix-blend-mode: multiply;" mask="url(#mask-13)"></path>
                                        </g>
                                    </g>
                                    <g transform="translate(34.688598, 23.020833)">
                                        <g id="Shape-2">
                                            <mask id="mask-16" fill="white">
                                                <use xlink:href="#path-15"></use>
                                            </mask>
                                            <g>
                                                <use fill="url(#linearGradient-7)" fill-rule="evenodd" xlink:href="#path-15"></use>
                                                <use fill="black" fill-opacity="1" filter="url(#filter-17)" xlink:href="#path-15"></use>
                                            </g>
                                            <path d="M1.26452227,39.8446891 C4.79589544,25.4855476 9.13921074,17.3941868 16.8719492,10.8596388 L14.5842615,9.00057141 L-1.51158677,38.7731008 L1.26452227,39.8446891 Z" id="Shape-3" stroke="#489C71" stroke-width="3" fill-opacity="0" fill="#000000" opacity="0.5" style="mix-blend-mode: multiply;" mask="url(#mask-16)"></path>
                                        </g>
                                    </g>
                                </g>
                            </g>
                        </g>
                        <g id="Plant" transform="translate(1053.000000, 0.000000)">
                            <g id="Pot" transform="translate(13.000000, 59.000000)">
                                <path d="M22.5140187,23.3258873 C34.7778099,23.3258873 44.7195953,25.4841867 44.7195953,28.1465786 C44.7195953,30.8089811 34.7778099,32.9672594 22.5140187,32.9672594 C10.2501824,32.9672594 0.308397028,30.8089811 0.308397028,28.1465786 C0.308397028,25.4841867 10.2501824,23.3258873 22.5140187,23.3258873 Z" id="shadow" fill="#BBCFF2" opacity="0.2"></path>
                                <g id="Ellipse-2" transform="translate(0.616822, 3.421131)">
                                    <mask id="mask-19" fill="white">
                                        <use xlink:href="#path-18"></use>
                                    </mask>
                                    <use fill="url(#linearGradient-1)" xlink:href="#path-18"></use>
                                </g>
                                <g id="Ellipse-1" transform="translate(2.467290, 0.000000)">
                                    <mask id="mask-21" fill="white">
                                        <use xlink:href="#path-20"></use>
                                    </mask>
                                    <use fill="url(#linearGradient-4)" xlink:href="#path-20"></use>
                                </g>
                            </g>
                            <g id="leaves">
                                <g id="leaf">
                                    <g transform="translate(19.069869, 0.000000)">
                                        <g id="Shape-2">
                                            <mask id="mask-23" fill="white">
                                                <use xlink:href="#path-22"></use>
                                            </mask>
                                            <g>
                                                <use fill="url(#linearGradient-7)" fill-rule="evenodd" xlink:href="#path-22"></use>
                                                <use fill="black" fill-opacity="1" filter="url(#filter-24)" xlink:href="#path-22"></use>
                                            </g>
                                            <path d="M13.0313633,44.6043544 L9.79707874,29.325898 C11.4952227,33.8769737 12.5441872,38.836827 13.0313616,44.6043461 Z M9.79707874,29.325898 L7.46855709,18.3261806 L4.74810618,19.4614897 C6.83348747,22.6299765 8.5036055,25.8593546 9.79707954,29.3259018 Z M13.0313616,44.6043461 C13.4082552,49.0662831 13.4489138,54.0116133 13.1938002,59.6250294 L16.1597333,59.3824802 L13.0313633,44.6043544 Z" id="Shape-3" stroke="#489C71" stroke-width="3" fill-opacity="0" fill="#000000" opacity="0.5" style="mix-blend-mode: multiply;" mask="url(#mask-23)"></path>
                                        </g>
                                    </g>
                                    <g transform="translate(0.000000, 30.586038)">
                                        <g id="Shape-2">
                                            <mask id="mask-26" fill="white">
                                                <use xlink:href="#path-25"></use>
                                            </mask>
                                            <g>
                                                <use fill="url(#linearGradient-11)" fill-rule="evenodd" xlink:href="#path-25"></use>
                                                <use fill="black" fill-opacity="1" filter="url(#filter-27)" xlink:href="#path-25"></use>
                                            </g>
                                            <path d="M32.4704556,37.5378602 L35.0857488,36.1180165 L14.6278394,7.72283002 L12.5969798,9.85969666 C21.3962057,15.5429441 26.9308869,23.2733145 32.4704556,37.5378602 Z" id="Shape-3" stroke="#489C71" stroke-width="3" fill-opacity="0" fill="#000000" opacity="0.5" style="mix-blend-mode: multiply;" mask="url(#mask-26)"></path>
                                        </g>
                                    </g>
                                    <g transform="translate(35.960235, 16.600361)">
                                        <g id="Shape-2">
                                            <mask id="mask-29" fill="white">
                                                <use xlink:href="#path-28"></use>
                                            </mask>
                                            <g>
                                                <use fill="url(#linearGradient-7)" fill-rule="evenodd" xlink:href="#path-28"></use>
                                                <use fill="black" fill-opacity="1" filter="url(#filter-30)" xlink:href="#path-28"></use>
                                            </g>
                                            <path d="M1.2575981,51.9649073 C4.92111991,37.0473975 9.42934858,28.6369552 17.4557568,21.844666 L15.1668518,19.987051 L-1.51904861,50.8945739 L1.2575981,51.9649073 Z" id="Shape-3" stroke="#489C71" stroke-width="3" fill-opacity="0" fill="#000000" opacity="0.5" style="mix-blend-mode: multiply;" mask="url(#mask-29)"></path>
                                        </g>
                                        <g id="Shape-2" transform="translate(0.000000, 31.182692)">
                                            <mask id="mask-32" fill="white">
                                                <use xlink:href="#path-31"></use>
                                            </mask>
                                            <g>
                                                <use fill="url(#linearGradient-7)" fill-rule="evenodd" xlink:href="#path-31"></use>
                                                <use fill="black" fill-opacity="1" filter="url(#filter-33)" xlink:href="#path-31"></use>
                                            </g>
                                            <path d="" id="Shape-3" stroke="#489C71" stroke-width="3" fill-opacity="0" fill="#000000" opacity="0.5" style="mix-blend-mode: multiply;" mask="url(#mask-32)"></path>
                                        </g>
                                    </g>
                                </g>
                            </g>
                        </g>
                    </g>
                </g>
            </g>
        </g>
    </g>
</svg>