<?xml version="1.0" encoding="UTF-8"?>
<svg width="1440px" height="329px" viewBox="0 0 1440 329" version="1.1" xmlns="http://www.w3.org/2000/svg" xmlns:xlink="http://www.w3.org/1999/xlink">
    <!-- Generator: Sketch 50.2 (55047) - http://www.bohemiancoding.com/sketch -->
    <title>graphics</title>
    <desc>Created with Sketch.</desc>
    <defs>
        <linearGradient x1="50%" y1="0%" x2="50%" y2="100%" id="linearGradient-1">
            <stop stop-color="#CFDDF3" offset="0%"></stop>
            <stop stop-color="#A1B8E3" offset="100%"></stop>
        </linearGradient>
        <linearGradient x1="227.604499%" y1="-30.2653238%" x2="50%" y2="100%" id="linearGradient-2">
            <stop stop-color="#CFDDF3" offset="0%"></stop>
            <stop stop-color="#A1B8E3" offset="100%"></stop>
        </linearGradient>
        <radialGradient cx="71.8863801%" cy="15.4650789%" fx="71.8863801%" fy="15.4650789%" r="98.946437%" gradientTransform="translate(0.718864,0.154651),scale(1.000000,0.544322),rotate(148.544719),scale(1.000000,2.177299),translate(-0.718864,-0.154651)" id="radialGradient-3">
            <stop stop-color="#64CF9B" offset="0%"></stop>
            <stop stop-color="#ADF9A9" offset="100%"></stop>
        </radialGradient>
        <path d="M41.2572184,147.207128 C28.7257405,144.0403 -8.24128734,128.728197 2.56856055,110.807673 C13.3784084,92.8871497 24.1882563,87.7271139 13.3784084,79.5371964 C2.56856055,71.347279 10.2486521,53.1319421 20.9352702,45.6349644 C31.6218884,38.1378258 6.31486405,15.8044376 17.9078235,3.98744864 C29.5006832,-7.82937941 66.5588633,10.4245793 67.4169885,32.7684275 C68.2751138,55.1122758 76.8967124,53.5653111 81.2785904,63.6538128 C85.6604685,73.7421535 55.3065041,88.8852857 59.7420772,99.8464795 C64.1775507,110.807673 90.0504157,122.23941 74.8962465,137.005979 C59.7420772,151.772549 53.7886963,150.374117 41.2572184,147.207128 Z" id="path-4"></path>
        <filter x="-23.4%" y="-12.8%" width="146.9%" height="125.5%" filterUnits="objectBoundingBox" id="filter-5">
            <feGaussianBlur stdDeviation="15" in="SourceAlpha" result="shadowBlurInner1"></feGaussianBlur>
            <feOffset dx="-8" dy="-6" in="shadowBlurInner1" result="shadowOffsetInner1"></feOffset>
            <feComposite in="shadowOffsetInner1" in2="SourceAlpha" operator="arithmetic" k2="-1" k3="1" result="shadowInnerInner1"></feComposite>
            <feColorMatrix values="0 0 0 0 0.269084458   0 0 0 0 0.794509991   0 0 0 0 0.470313157  0 0 0 0.5 0" type="matrix" in="shadowInnerInner1"></feColorMatrix>
        </filter>
        <linearGradient x1="50%" y1="-13.7050775%" x2="100%" y2="91.3638256%" id="linearGradient-6">
            <stop stop-color="#EDF3FD" stop-opacity="0" offset="0%"></stop>
            <stop stop-color="#D6E3FA" offset="100%"></stop>
        </linearGradient>
        <linearGradient x1="50%" y1="0%" x2="50%" y2="100%" id="linearGradient-7">
            <stop stop-color="#80D4AE" offset="0%"></stop>
            <stop stop-color="#4CB67D" offset="100%"></stop>
        </linearGradient>
        <linearGradient x1="50%" y1="0%" x2="50%" y2="100%" id="linearGradient-8">
            <stop stop-color="#64DEA8" offset="0%"></stop>
            <stop stop-color="#4CB67D" offset="100%"></stop>
        </linearGradient>
        <linearGradient x1="31.669258%" y1="-9.21335019%" x2="111.326431%" y2="74.9736608%" id="linearGradient-9">
            <stop stop-color="#CFDDF3" offset="0%"></stop>
            <stop stop-color="#7FA1E0" offset="100%"></stop>
        </linearGradient>
    </defs>
    <g id="Page-1" stroke="none" stroke-width="1" fill="none" fill-rule="evenodd">
        <g id="Home" transform="translate(0.000000, -6236.000000)">
            <g id="footer" transform="translate(0.000000, 6236.000000)">
                <g id="graphics">
                    <path d="M0,202.544523 C130.985256,160.807767 273.941049,150.51842 428.86738,171.676481 C670.271952,204.64475 805.392479,276.970677 1061.22384,276.970677 C1256.89692,276.970677 1383.15564,257.829838 1440,219.54816 L1440,328.581411 L0,328.581411 L0,202.544523 Z" id="Rectangle-4-Copy-4" fill="#5D75F6"></path>
                    <g id="Group-35" transform="translate(152.000000, 0.000000)">
                        <g id="plant" transform="translate(995.000000, 118.000000)">
                            <path d="M28.8478223,194.957726 C28.8478223,169.567101 50.0123742,90.9912694 78.5804543,47.9964369" id="stem" stroke="url(#linearGradient-1)" stroke-width="6" stroke-linecap="round"></path>
                            <path d="M53.8322418,63.0470323 C58.7272773,56.1505851 61.174795,48.4487622 61.174795,39.9415635 C61.174795,27.1807655 57.887422,16.8360948 53.8322418,16.8360948 C49.7770617,16.8360948 46.4896887,27.1807655 46.4896887,39.9415635 C46.4896887,48.4487622 48.9372064,56.1505851 53.8322418,63.0470323 Z" id="leaf" fill="url(#linearGradient-2)" transform="translate(53.832242, 39.941564) rotate(-30.000000) translate(-53.832242, -39.941564) "></path>
                            <path d="M95.6954073,86.6221962 C100.590443,79.7257491 103.03796,72.0239262 103.03796,63.5167275 C103.03796,50.7559294 99.7505874,40.4112587 95.6954073,40.4112587 C91.6402271,40.4112587 88.3528541,50.7559294 88.3528541,63.5167275 C88.3528541,72.0239262 90.8003718,79.7257491 95.6954073,86.6221962 Z" id="leaf" fill="url(#linearGradient-2)" transform="translate(95.695407, 63.516727) rotate(88.000000) translate(-95.695407, -63.516727) "></path>
                            <path d="M82.0230669,120.137821 C86.9181023,113.241374 89.3656201,105.539551 89.3656201,97.0323525 C89.3656201,84.2715544 86.078247,73.9268837 82.0230669,73.9268837 C77.9678867,73.9268837 74.6805137,84.2715544 74.6805137,97.0323525 C74.6805137,105.539551 77.1280314,113.241374 82.0230669,120.137821 Z" id="leaf" fill="url(#linearGradient-2)" transform="translate(82.023067, 97.032352) rotate(91.000000) translate(-82.023067, -97.032352) "></path>
                            <path d="M70.8815198,152.639223 C75.7765552,145.742776 78.224073,138.040953 78.224073,129.533754 C78.224073,116.772956 74.9366999,106.428285 70.8815198,106.428285 C66.8263396,106.428285 63.5389666,116.772956 63.5389666,129.533754 C63.5389666,138.040953 65.9864843,145.742776 70.8815198,152.639223 Z" id="leaf" fill="url(#linearGradient-2)" transform="translate(70.881520, 129.533754) rotate(91.000000) translate(-70.881520, -129.533754) "></path>
                            <path d="M93.5496085,46.8837566 C98.4446439,39.9873095 100.892162,32.2854866 100.892162,23.7782879 C100.892162,11.0174899 97.6047886,0.672819148 93.5496085,0.672819148 C89.4944283,0.672819148 86.2070553,11.0174899 86.2070553,23.7782879 C86.2070553,32.2854866 88.654573,39.9873095 93.5496085,46.8837566 Z" id="leaf" fill="url(#linearGradient-2)" transform="translate(93.549608, 23.778288) rotate(33.000000) translate(-93.549608, -23.778288) "></path>
                            <path d="M35.6155148,98.5029172 C40.5105502,91.60647 42.958068,83.9046471 42.958068,75.3974484 C42.958068,62.6366504 39.6706949,52.2919797 35.6155148,52.2919797 C31.5603346,52.2919797 28.2729616,62.6366504 28.2729616,75.3974484 C28.2729616,83.9046471 30.7204793,91.60647 35.6155148,98.5029172 Z" id="leaf" fill="url(#linearGradient-2)" transform="translate(35.615515, 75.397448) rotate(-41.000000) translate(-35.615515, -75.397448) "></path>
                            <path d="M21.9431743,134.049792 C26.8382098,127.153345 29.2857275,119.451522 29.2857275,110.944323 C29.2857275,98.1835254 25.9983545,87.8388547 21.9431743,87.8388547 C17.8879942,87.8388547 14.6006211,98.1835254 14.6006211,110.944323 C14.6006211,119.451522 17.0481389,127.153345 21.9431743,134.049792 Z" id="leaf" fill="url(#linearGradient-2)" transform="translate(21.943174, 110.944323) rotate(-47.000000) translate(-21.943174, -110.944323) "></path>
                        </g>
                        <g id="plant" opacity="0.300000012" transform="translate(995.000000, 229.000000) scale(-1, 1) rotate(-18.000000) translate(-995.000000, -229.000000) translate(950.000000, 156.000000)">
                            <path d="M21.8176808,145.968349 C21.8176808,126.957932 37.8244847,68.1267966 59.4305957,35.9357938" id="stem" stroke="url(#linearGradient-1)" stroke-width="4.5" stroke-linecap="round"></path>
                            <path d="M40.7134602,47.2044447 C44.4155879,42.0409509 46.2666517,36.2744579 46.2666517,29.9049655 C46.2666517,20.350727 43.7804032,12.6054863 40.7134602,12.6054863 C37.6465172,12.6054863 35.1602687,20.350727 35.1602687,29.9049655 C35.1602687,36.2744579 37.0113326,42.0409509 40.7134602,47.2044447 Z" id="leaf" fill="url(#linearGradient-2)" transform="translate(40.713460, 29.904966) rotate(-30.000000) translate(-40.713460, -29.904966) "></path>
                            <path d="M72.3746778,64.8555931 C76.0768054,59.6920993 77.9278693,53.9256062 77.9278693,47.5561139 C77.9278693,38.0018754 75.4416208,30.2566347 72.3746778,30.2566347 C69.3077348,30.2566347 66.8214863,38.0018754 66.8214863,47.5561139 C66.8214863,53.9256062 68.6725501,59.6920993 72.3746778,64.8555931 Z" id="leaf" fill="url(#linearGradient-2)" transform="translate(72.374678, 47.556114) rotate(88.000000) translate(-72.374678, -47.556114) "></path>
                            <path d="M62.0342523,89.9493431 C65.7363799,84.7858493 67.5874437,79.0193562 67.5874437,72.6498639 C67.5874437,63.0956254 65.1011952,55.3503847 62.0342523,55.3503847 C58.9673093,55.3503847 56.4810608,63.0956254 56.4810608,72.6498639 C56.4810608,79.0193562 58.3321246,84.7858493 62.0342523,89.9493431 Z" id="leaf" fill="url(#linearGradient-2)" transform="translate(62.034252, 72.649864) rotate(91.000000) translate(-62.034252, -72.649864) "></path>
                            <path d="M53.6078721,114.283726 C57.3099998,109.120232 59.1610636,103.353739 59.1610636,96.9842466 C59.1610636,87.4300081 56.6748151,79.6847674 53.6078721,79.6847674 C50.5409291,79.6847674 48.0546806,87.4300081 48.0546806,96.9842466 C48.0546806,103.353739 49.9057444,109.120232 53.6078721,114.283726 Z" id="leaf" fill="url(#linearGradient-2)" transform="translate(53.607872, 96.984247) rotate(91.000000) translate(-53.607872, -96.984247) "></path>
                            <path d="M70.7518047,35.1027101 C74.4539324,29.9392163 76.3049962,24.1727233 76.3049962,17.8032309 C76.3049962,8.24899242 73.8187477,0.503751772 70.7518047,0.503751772 C67.6848618,0.503751772 65.1986132,8.24899242 65.1986132,17.8032309 C65.1986132,24.1727233 67.0496771,29.9392163 70.7518047,35.1027101 Z" id="leaf" fill="url(#linearGradient-2)" transform="translate(70.751805, 17.803231) rotate(33.000000) translate(-70.751805, -17.803231) "></path>
                            <path d="M26.9361036,73.7509021 C30.6382313,68.5874083 32.4892951,62.8209153 32.4892951,56.4514229 C32.4892951,46.8971844 30.0030466,39.1519438 26.9361036,39.1519438 C23.8691606,39.1519438 21.3829121,46.8971844 21.3829121,56.4514229 C21.3829121,62.8209153 23.2339759,68.5874083 26.9361036,73.7509021 Z" id="leaf" fill="url(#linearGradient-2)" transform="translate(26.936104, 56.451423) rotate(-41.000000) translate(-26.936104, -56.451423) "></path>
                            <path d="M16.5956781,100.365485 C20.2978057,95.2019917 22.1488696,89.4354986 22.1488696,83.0660063 C22.1488696,73.5117677 19.662621,65.7665271 16.5956781,65.7665271 C13.5287351,65.7665271 11.0424866,73.5117677 11.0424866,83.0660063 C11.0424866,89.4354986 12.8935504,95.2019917 16.5956781,100.365485 Z" id="leaf" fill="url(#linearGradient-2)" transform="translate(16.595678, 83.066006) rotate(-47.000000) translate(-16.595678, -83.066006) "></path>
                        </g>
                        <g id="tree" transform="translate(38.000000, 0.000000)">
                            <g id="leaves">
                                <use fill="url(#radialGradient-3)" fill-rule="evenodd" xlink:href="#path-4"></use>
                                <use fill="black" fill-opacity="1" filter="url(#filter-5)" xlink:href="#path-4"></use>
                            </g>
                            <path d="M45.9542859,171.967 C44.4613343,171.07901 9.15046035,156.209983 12.4108659,153.029234 C14.5844696,150.908734 20.9726957,149.848485 31.5755442,149.848485 C42.156673,165.186154 46.9495869,172.558993 45.9542859,171.967 Z" id="shadow" fill="url(#linearGradient-6)" style="mix-blend-mode: multiply;"></path>
                            <path d="M44.1674567,170.270055 C45.6073496,145.008167 18.9936261,134.474317 37.9233464,98.9122192 C56.8530261,63.3502745 43.6996907,32.6442416 37.9233464,20.9512255" id="stem" stroke="url(#linearGradient-7)" stroke-width="6" fill-opacity="0" fill="#000000" stroke-linecap="round" stroke-linejoin="round"></path>
                            <path d="M42.9200957,83.5876348 C39.5475455,82.0239659 33.3408313,77.6193 30.2699381,70.8214723" id="branch" stroke="url(#linearGradient-8)" stroke-width="5" fill-opacity="0" fill="#000000" opacity="0.3" stroke-linecap="round" stroke-linejoin="round"></path>
                            <path d="M32.754839,129.849793 C27.5148967,127.741572 16.7982421,121.953707 16.0385494,113.165339" id="branch" stroke="url(#linearGradient-8)" stroke-width="5" fill-opacity="0" fill="#000000" opacity="0.3" stroke-linecap="round" stroke-linejoin="round"></path>
                            <path d="M34.316855,108.547083 C38.9829166,109.845965 45.9030809,108.663865 51.7492607,100.147197" id="branch" stroke="url(#linearGradient-8)" stroke-width="5" fill-opacity="0" fill="#000000" opacity="0.3" stroke-linecap="round" stroke-linejoin="round"></path>
                            <path d="M47.2121316,43.8850703 C50.284944,41.5775405 56.260219,32.4650847 55.7961451,24.5240434" id="branch" stroke="url(#linearGradient-8)" stroke-width="5" fill-opacity="0" fill="#000000" opacity="0.3" stroke-linecap="round" stroke-linejoin="round"></path>
                        </g>
                        <g id="tree" opacity="0.300000012" transform="translate(0.000000, 51.000000)">
                            <path d="M33.9292265,92.3258638 C31.4455202,94.4441696 22,90.2075579 18.2550629,83.6315606 C14.5101259,77.0555634 21.4569905,74.7148498 12.008021,64.1974033 C2.55905161,53.6799568 -3.50395219,49.6519969 2.23026356,32.3158434 C7.96447931,14.9796899 0.0427130761,5.34506382 10.509818,0.822152826 C20.9769228,-3.70075816 27.0048931,11.3102749 25.8042616,24.5139956 C24.6036302,37.7177163 27.0593217,40.4541507 37.2975062,39.0859335 C47.5356907,37.7177163 38.9039511,57.1019513 38.9039511,61.3331611 C38.9039511,65.564371 45.112016,73.4233243 43.8241387,79.33606 C42.5362614,85.2487957 36.4129327,90.2075579 33.9292265,92.3258638 Z" id="leaves" fill="url(#linearGradient-9)"></path>
                            <path d="M27.7538462,74.5621622 C29.5721571,71.6786156 33.1692308,62.0421547 33.1692308,54.9405405" id="branch" stroke="url(#linearGradient-1)" stroke-width="6" stroke-linecap="round"></path>
                            <path d="M6.76923077,55.5945946 C6.76923077,52.3239245 16.3128401,50.027739 20.9846154,43.8216216" id="branch" stroke="url(#linearGradient-1)" stroke-width="6" stroke-linecap="round" transform="translate(13.876923, 49.708108) scale(-1, 1) translate(-13.876923, -49.708108) "></path>
                            <path d="M41.9692308,121 C41.3387148,117.997344 39.6887859,106.218083 34.8994367,92.4316233 C27.3213396,70.617568 15.5692308,42.1283265 15.5692308,22.8918919" id="branch" stroke="url(#linearGradient-1)" stroke-width="6" stroke-linecap="round"></path>
                        </g>
                    </g>
                </g>
            </g>
        </g>
    </g>
</svg>