<?xml version="1.0" encoding="UTF-8"?>
<svg width="1438px" height="365px" viewBox="0 0 1438 365" version="1.1" xmlns="http://www.w3.org/2000/svg" xmlns:xlink="http://www.w3.org/1999/xlink">
    <!-- Generator: Sketch 50.2 (55047) - http://www.bohemiancoding.com/sketch -->
    <title>hills</title>
    <desc>Created with Sketch.</desc>
    <defs>
        <linearGradient x1="31.669258%" y1="-9.21335019%" x2="100%" y2="50%" id="linearGradient-1">
            <stop stop-color="#CFDDF3" offset="0%"></stop>
            <stop stop-color="#A1B8E3" offset="100%"></stop>
        </linearGradient>
        <linearGradient x1="50%" y1="0%" x2="50%" y2="100%" id="linearGradient-2">
            <stop stop-color="#CFDDF3" offset="0%"></stop>
            <stop stop-color="#A1B8E3" offset="100%"></stop>
        </linearGradient>
        <linearGradient x1="227.604499%" y1="-30.2653238%" x2="50%" y2="100%" id="linearGradient-3">
            <stop stop-color="#CFDDF3" offset="0%"></stop>
            <stop stop-color="#A1B8E3" offset="100%"></stop>
        </linearGradient>
        <linearGradient x1="12.0299736%" y1="-13.8706909%" x2="20.148299%" y2="104.636122%" id="linearGradient-4">
            <stop stop-color="#FFFFFF" offset="0%"></stop>
            <stop stop-color="#D6E3FA" offset="100%"></stop>
        </linearGradient>
        <linearGradient x1="50%" y1="56.8726641%" x2="50%" y2="-97.5239132%" id="linearGradient-5">
            <stop stop-color="#FFFFFF" offset="0%"></stop>
            <stop stop-color="#D6E3FA" offset="100%"></stop>
        </linearGradient>
    </defs>
    <g id="Page-1" stroke="none" stroke-width="1" fill="none" fill-rule="evenodd">
        <g id="Desktop-HD" transform="translate(-1.000000, -439.000000)">
            <g id="hills" transform="translate(1.000000, 437.000000)">
                <g id="tree" opacity="0.205803571" transform="translate(1086.196329, 45.667171) rotate(-1.000000) translate(-1086.196329, -45.667171) translate(1077.196329, 25.667171)">
                    <path d="M13.4433185,33.7657833 C12.4609655,34.5404986 8.72508246,32.9910681 7.24388859,30.5860681 C5.76269472,28.1810681 8.51031185,27.325013 4.77306464,23.4785305 C1.03581743,19.632048 -1.36221595,18.1589264 0.905775497,11.8186792 C3.17376694,5.47843199 0.0405576552,1.95481807 4.18049681,0.300681013 C8.32043597,-1.35345604 10.7046129,4.13643886 10.2297403,8.96535629 C9.75486775,13.7942737 10.7261405,14.7950535 14.7755373,14.2946636 C18.824934,13.7942737 15.4109168,20.8835535 15.4109168,22.4310084 C15.4109168,23.9784634 17.8663246,26.8526712 17.3569446,29.0151005 C16.8475646,31.1775298 14.4256716,32.9910681 13.4433185,33.7657833 Z" id="leaves" fill="url(#linearGradient-1)"></path>
                    <path d="M11.0781757,27.024472 C11.0781757,25.8367603 11.4147811,22.1361549 13.2458789,19.8824644" id="branch" stroke="url(#linearGradient-2)" stroke-width="3" stroke-linecap="round"></path>
                    <path d="M2.64378345,20.0941358 C2.64378345,18.9064241 6.38439188,18.0725869 8.2154897,15.8188963" id="branch" stroke="url(#linearGradient-2)" stroke-width="3" stroke-linecap="round" transform="translate(5.429637, 17.956516) scale(-1, 1) translate(-5.429637, -17.956516) "></path>
                    <path d="M15.6495259,39.3288004 C15.6495259,38.8234726 14.6733071,36.5455373 13.740468,33.9063035 C10.8193059,25.6416097 6.11056969,15.4645268 6.11056969,8.41222495" id="stem" stroke="url(#linearGradient-2)" stroke-width="3" stroke-linecap="round"></path>
                </g>
                <g id="plant" transform="translate(290.049200, 41.650154) rotate(-7.000000) translate(-290.049200, -41.650154) translate(270.049200, 8.650154)">
                    <path d="M9.81816898,65.6108882 C9.81816898,57.0659513 16.6773759,30.6221155 25.9359877,16.1526754" id="stem" stroke="url(#linearGradient-2)" stroke-width="6" stroke-linecap="round"></path>
                    <path d="M17.9153545,21.2177885 C19.5017836,18.8968647 20.2949981,16.3049005 20.2949981,13.4418959 C20.2949981,9.14738905 19.2295954,5.66600337 17.9153545,5.66600337 C16.6011136,5.66600337 15.5357108,9.14738905 15.5357108,13.4418959 C15.5357108,16.3049005 16.3289254,18.8968647 17.9153545,21.2177885 Z" id="leaf" fill="url(#linearGradient-3)" transform="translate(17.915354, 13.441896) rotate(-30.000000) translate(-17.915354, -13.441896) "></path>
                    <path d="M31.4827626,29.1517518 C33.0691917,26.830828 33.8624062,24.2388638 33.8624062,21.3758592 C33.8624062,17.0813524 32.7970035,13.5999667 31.4827626,13.5999667 C30.1685217,13.5999667 29.1031189,17.0813524 29.1031189,21.3758592 C29.1031189,24.2388638 29.8963335,26.830828 31.4827626,29.1517518 Z" id="leaf" fill="url(#linearGradient-3)" transform="translate(31.482763, 21.375859) rotate(88.000000) translate(-31.482763, -21.375859) "></path>
                    <path d="M27.051702,40.4310684 C28.6381311,38.1101447 29.4313456,35.5181805 29.4313456,32.6551759 C29.4313456,28.360669 28.3659429,24.8792833 27.051702,24.8792833 C25.7374611,24.8792833 24.6720583,28.360669 24.6720583,32.6551759 C24.6720583,35.5181805 25.4652729,38.1101447 27.051702,40.4310684 Z" id="leaf" fill="url(#linearGradient-3)" transform="translate(27.051702, 32.655176) rotate(91.000000) translate(-27.051702, -32.655176) "></path>
                    <path d="M23.4408447,51.3690593 C25.0272738,49.0481355 25.8204883,46.4561713 25.8204883,43.5931668 C25.8204883,39.2986599 24.7550856,35.8172742 23.4408447,35.8172742 C22.1266038,35.8172742 21.061201,39.2986599 21.061201,43.5931668 C21.061201,46.4561713 21.8544156,49.0481355 23.4408447,51.3690593 Z" id="leaf" fill="url(#linearGradient-3)" transform="translate(23.440845, 43.593167) rotate(91.000000) translate(-23.440845, -43.593167) "></path>
                    <path d="M30.7873319,15.778215 C32.373761,13.4572912 33.1669756,10.865327 33.1669756,8.00232246 C33.1669756,3.70781559 32.1015728,0.226429918 30.7873319,0.226429918 C29.473091,0.226429918 28.4076883,3.70781559 28.4076883,8.00232246 C28.4076883,10.865327 29.2009028,13.4572912 30.7873319,15.778215 Z" id="leaf" fill="url(#linearGradient-3)" transform="translate(30.787332, 8.002322) rotate(33.000000) translate(-30.787332, -8.002322) "></path>
                    <path d="M12.0115064,33.1500784 C13.5979354,30.8291546 14.39115,28.2371904 14.39115,25.3741858 C14.39115,21.0796789 13.3257472,17.5982933 12.0115064,17.5982933 C10.6972655,17.5982933 9.6318627,21.0796789 9.6318627,25.3741858 C9.6318627,28.2371904 10.4250773,30.8291546 12.0115064,33.1500784 Z" id="leaf" fill="url(#linearGradient-3)" transform="translate(12.011506, 25.374186) rotate(-41.000000) translate(-12.011506, -25.374186) "></path>
                    <path d="M7.58044577,45.11299 C9.16687487,42.7920662 9.96008941,40.200102 9.96008941,37.3370974 C9.96008941,33.0425905 8.89468666,29.5612049 7.58044577,29.5612049 C6.26620487,29.5612049 5.20080212,33.0425905 5.20080212,37.3370974 C5.20080212,40.200102 5.99401667,42.7920662 7.58044577,45.11299 Z" id="leaf" fill="url(#linearGradient-3)" transform="translate(7.580446, 37.337097) rotate(-47.000000) translate(-7.580446, -37.337097) "></path>
                </g>
                <g id="plant" opacity="0.200000003" transform="translate(264.516920, 53.542920) rotate(-38.000000) translate(-264.516920, -53.542920) translate(248.016920, 26.542920)">
                    <path d="M8.55898699,53.0471011 C8.55898699,46.1384287 14.1047287,24.7583062 21.5904149,13.0596099" id="stem" stroke="#A1B8E3" stroke-width="6" stroke-linecap="round"></path>
                    <path d="M15.1056476,17.1548077 C16.3882924,15.2783161 17.0296148,13.1826855 17.0296148,10.8679158 C17.0296148,7.39576136 16.1682253,4.581024 15.1056476,4.581024 C14.0430698,4.581024 13.1816804,7.39576136 13.1816804,10.8679158 C13.1816804,13.1826855 13.8230028,15.2783161 15.1056476,17.1548077 Z" id="leaf" fill="#A1B8E3" transform="translate(15.105648, 10.867916) rotate(-30.000000) translate(-15.105648, -10.867916) "></path>
                    <path d="M26.0750414,23.5695014 C27.3576862,21.6930099 27.9990086,19.5973793 27.9990086,17.2826096 C27.9990086,13.8104551 27.1376191,10.9957178 26.0750414,10.9957178 C25.0124636,10.9957178 24.1510742,13.8104551 24.1510742,17.2826096 C24.1510742,19.5973793 24.7923966,21.6930099 26.0750414,23.5695014 Z" id="leaf" fill="#A1B8E3" transform="translate(26.075041, 17.282610) rotate(88.000000) translate(-26.075041, -17.282610) "></path>
                    <path d="M22.4924818,32.688949 C23.7751266,30.8124574 24.416449,28.7168268 24.416449,26.4020571 C24.416449,22.9299026 23.5550595,20.1151653 22.4924818,20.1151653 C21.429904,20.1151653 20.5685146,22.9299026 20.5685146,26.4020571 C20.5685146,28.7168268 21.209837,30.8124574 22.4924818,32.688949 Z" id="leaf" fill="#A1B8E3" transform="translate(22.492482, 26.402057) rotate(91.000000) translate(-22.492482, -26.402057) "></path>
                    <path d="M19.5730652,41.5324309 C20.85571,39.6559394 21.4970324,37.5603087 21.4970324,35.2455391 C21.4970324,31.7733846 20.635643,28.9586472 19.5730652,28.9586472 C18.5104875,28.9586472 17.649098,31.7733846 17.649098,35.2455391 C17.649098,37.5603087 18.2904204,39.6559394 19.5730652,41.5324309 Z" id="leaf" fill="#A1B8E3" transform="translate(19.573065, 35.245539) rotate(91.000000) translate(-19.573065, -35.245539) "></path>
                    <path d="M25.5127783,12.7568547 C26.7954231,10.8803631 27.4367455,8.7847325 27.4367455,6.46996284 C27.4367455,2.99780835 26.575356,0.183070998 25.5127783,0.183070998 C24.4502006,0.183070998 23.5888111,2.99780835 23.5888111,6.46996284 C23.5888111,8.7847325 24.2301335,10.8803631 25.5127783,12.7568547 Z" id="leaf" fill="#A1B8E3" transform="translate(25.512778, 6.469963) rotate(33.000000) translate(-25.512778, -6.469963) "></path>
                    <path d="M10.3323236,26.802191 C11.6149684,24.9256994 12.2562908,22.8300688 12.2562908,20.5152992 C12.2562908,17.0431447 11.3949013,14.2284073 10.3323236,14.2284073 C9.26974584,14.2284073 8.40835638,17.0431447 8.40835638,20.5152992 C8.40835638,22.8300688 9.04967878,24.9256994 10.3323236,26.802191 Z" id="leaf" fill="#A1B8E3" transform="translate(10.332324, 20.515299) rotate(-41.000000) translate(-10.332324, -20.515299) "></path>
                    <path d="M6.74976396,36.4743323 C8.03240877,34.5978407 8.67373117,32.5022101 8.67373117,30.1874405 C8.67373117,26.715286 7.81234171,23.9005486 6.74976396,23.9005486 C5.68718622,23.9005486 4.82579676,26.715286 4.82579676,30.1874405 C4.82579676,32.5022101 5.46711916,34.5978407 6.74976396,36.4743323 Z" id="leaf" fill="#A1B8E3" transform="translate(6.749764, 30.187440) rotate(-47.000000) translate(-6.749764, -30.187440) "></path>
                </g>
                <path d="M0,150.143441 C75.6928701,121.416125 268.507461,53.0798332 438.06421,53.0798332 C607.620959,53.0798332 817.806824,163.691466 953.446979,176.243699 C1043.87375,184.611854 1205.39142,191.693776 1438,197.489465 L1438,366.079833 L0,366.079833 C0,295.531396 0,223.552599 0,150.143441 Z" id="ground" fill="url(#linearGradient-4)" transform="translate(719.000000, 209.579833) scale(-1, 1) translate(-719.000000, -209.579833) "></path>
                <path d="M0,150.143441 C75.6928701,121.416125 268.507461,53.0798332 438.06421,53.0798332 C607.620959,53.0798332 817.806824,163.691466 953.446979,176.243699 C1043.87375,184.611854 1205.39142,191.693776 1438,197.489465 L1438,366.079833 L0,366.079833 C0,295.531396 0,223.552599 0,150.143441 Z" id="ground" fill="url(#linearGradient-5)"></path>
                <g id="tree" opacity="0.821875" transform="translate(1098.207251, 31.683143) rotate(18.000000) translate(-1098.207251, -31.683143) translate(1085.207251, 2.683143)">
                    <path d="M19.6810183,49.4331068 C18.2428534,50.56729 12.7735207,48.2989237 10.6050529,44.7780037 C8.43658507,41.2570838 12.4590966,40.0038191 6.98776663,34.3725687 C1.51643672,28.7413183 -1.99428415,26.5846683 1.32605533,17.3025464 C4.6463948,8.02042443 0.0593764072,2.86185365 6.12024734,0.440197002 C12.1811183,-1.98145965 15.6715533,6.05574649 14.9763398,13.1252816 C14.2811264,20.1948167 15.7030696,21.6599583 21.6313865,20.9273875 C27.5597034,20.1948167 22.5615821,30.5735223 22.5615821,32.8389964 C22.5615821,35.1044704 26.1562992,39.3123106 25.4105669,42.4781071 C24.6648346,45.6439036 21.1191832,48.2989237 19.6810183,49.4331068 Z" id="leaves" fill="url(#linearGradient-1)"></path>
                    <path d="M16.2184492,39.563827 C16.2184492,37.8250171 16.7112395,32.4073308 19.3919667,29.1079278" id="branch" stroke="url(#linearGradient-2)" stroke-width="3" stroke-linecap="round"></path>
                    <path d="M3.87049896,29.4178148 C3.87049896,27.6790048 9.34674971,26.4582672 12.0274769,23.1588642" id="branch" stroke="url(#linearGradient-2)" stroke-width="3" stroke-linecap="round" transform="translate(7.948988, 26.288339) scale(-1, 1) translate(-7.948988, -26.288339) "></path>
                    <path d="M22.910906,57.5773637 C22.910906,56.8375638 21.4817216,53.5026667 20.1160451,49.6388283 C15.8394638,37.5393167 8.94587403,22.6400672 8.94587403,12.3154973" id="stem" stroke="url(#linearGradient-2)" stroke-width="3" stroke-linecap="round"></path>
                </g>
            </g>
        </g>
    </g>
</svg>