<?xml version="1.0" encoding="UTF-8"?>
<svg width="611px" height="380px" viewBox="0 0 611 380" version="1.1" xmlns="http://www.w3.org/2000/svg" xmlns:xlink="http://www.w3.org/1999/xlink">
    <!-- Generator: Sketch 51.3 (57544) - http://www.bohemiancoding.com/sketch -->
    <title>Group 26 Copy 2</title>
    <desc>Created with Sketch.</desc>
    <defs>
        <rect id="path-1" x="0" y="0" width="485" height="288" rx="12"></rect>
        <filter x="-14.4%" y="-17.7%" width="128.9%" height="148.6%" filterUnits="objectBoundingBox" id="filter-2">
            <feOffset dx="0" dy="15" in="SourceAlpha" result="shadowOffsetOuter1"></feOffset>
            <feGaussianBlur stdDeviation="17.5" in="shadowOffsetOuter1" result="shadowBlurOuter1"></feGaussianBlur>
            <feColorMatrix values="0 0 0 0 0   0 0 0 0 0   0 0 0 0 0  0 0 0 0.1 0" type="matrix" in="shadowBlurOuter1" result="shadowMatrixOuter1"></feColorMatrix>
            <feOffset dx="0" dy="4" in="SourceAlpha" result="shadowOffsetOuter2"></feOffset>
            <feGaussianBlur stdDeviation="5" in="shadowOffsetOuter2" result="shadowBlurOuter2"></feGaussianBlur>
            <feColorMatrix values="0 0 0 0 0   0 0 0 0 0   0 0 0 0 0  0 0 0 0.2 0" type="matrix" in="shadowBlurOuter2" result="shadowMatrixOuter2"></feColorMatrix>
            <feMerge>
                <feMergeNode in="shadowMatrixOuter1"></feMergeNode>
                <feMergeNode in="shadowMatrixOuter2"></feMergeNode>
            </feMerge>
        </filter>
        <rect id="path-3" x="0" y="0" width="412" height="81" rx="4"></rect>
        <filter x="-18.2%" y="-71.6%" width="136.4%" height="285.2%" filterUnits="objectBoundingBox" id="filter-5">
            <feOffset dx="0" dy="15" in="SourceAlpha" result="shadowOffsetOuter1"></feOffset>
            <feGaussianBlur stdDeviation="17.5" in="shadowOffsetOuter1" result="shadowBlurOuter1"></feGaussianBlur>
            <feColorMatrix values="0 0 0 0 0.141176471   0 0 0 0 0.133333333   0 0 0 0 0.196078431  0 0 0 0.1 0" type="matrix" in="shadowBlurOuter1" result="shadowMatrixOuter1"></feColorMatrix>
            <feOffset dx="0" dy="2" in="SourceAlpha" result="shadowOffsetOuter2"></feOffset>
            <feGaussianBlur stdDeviation="7.5" in="shadowOffsetOuter2" result="shadowBlurOuter2"></feGaussianBlur>
            <feColorMatrix values="0 0 0 0 0.141176471   0 0 0 0 0.133333333   0 0 0 0 0.196078431  0 0 0 0.1 0" type="matrix" in="shadowBlurOuter2" result="shadowMatrixOuter2"></feColorMatrix>
            <feMerge>
                <feMergeNode in="shadowMatrixOuter1"></feMergeNode>
                <feMergeNode in="shadowMatrixOuter2"></feMergeNode>
            </feMerge>
        </filter>
    </defs>
    <g id="Page-1" stroke="none" stroke-width="1" fill="none" fill-rule="evenodd">
        <g id="Home-Copy" transform="translate(-791.000000, -3175.000000)">
            <g id="Group-26-Copy-2" transform="translate(826.000000, 3195.000000)">
                <g id="Group-5" transform="translate(0.000000, 22.000000)">
                    <g id="Rectangle-16">
                        <use fill="black" fill-opacity="1" filter="url(#filter-2)" xlink:href="#path-1"></use>
                        <use fill="#22284A" fill-rule="evenodd" xlink:href="#path-1"></use>
                    </g>
                    <polygon id="Path-20" fill="#5D75F6" fill-rule="nonzero" points="3.32289045 157.9084 2.67710955 154.978729 41.5303825 146.414386 76.0013969 166.392123 146.795007 155.024779 189.151293 121.385083 240.77607 132.429543 271.444067 121.433681 316.261474 132.759958 336.69316 228.242101 333.759572 228.869843 313.718157 135.211528 271.595694 124.566319 240.984143 135.541943 189.908286 124.614917 148.045904 157.86235 75.421789 169.523619 41.0361319 149.595351"></polygon>
                    <path d="M2,225 L484,225" id="Line-11" stroke="#F75353" stroke-width="2" stroke-linecap="square" stroke-dasharray="5,15"></path>
                    <g id="Group-4" transform="translate(317.000000, 205.000000)">
                        <circle id="Oval-11" fill="#FFFFFF" cx="17" cy="18" r="11"></circle>
                        <path d="M4.765625,5.515625 C7.94272422,2.33852578 11.7708109,0.75 16.25,0.75 C20.7291891,0.75 24.5572758,2.33852578 27.734375,5.515625 C30.9114742,8.69272422 32.5,12.5208109 32.5,17 C32.5,21.4791891 30.9114742,25.3072758 27.734375,28.484375 C24.5572758,31.6614742 20.7291891,33.25 16.25,33.25 C11.7708109,33.25 7.94272422,31.6614742 4.765625,28.484375 C1.58852578,25.3072758 0,21.4791891 0,17 C0,12.5208109 1.58852578,8.69272422 4.765625,5.515625 Z M18.125,25.125 L18.125,22 L14.375,22 L14.375,25.125 L18.125,25.125 Z M18.125,18.25 L18.125,8.25 L14.375,8.25 L14.375,18.25 L18.125,18.25 Z" id="ion-android-alert---Ionicons" fill="#F75353"></path>
                    </g>
                </g>
                <g id="Group-24" transform="translate(129.000000, 0.000000)">
                    <mask id="mask-4" fill="white">
                        <use xlink:href="#path-3"></use>
                    </mask>
                    <g id="Rectangle-7">
                        <use fill="black" fill-opacity="1" filter="url(#filter-5)" xlink:href="#path-3"></use>
                        <use fill="#FFFFFF" fill-rule="evenodd" xlink:href="#path-3"></use>
                    </g>
                    <rect id="Rectangle-8" fill="#F75353" mask="url(#mask-4)" x="0" y="-7" width="10" height="95"></rect>
                    <g id="Group-23" mask="url(#mask-4)">
                        <g transform="translate(20.000000, 17.000000)">
                            <g id="Group-22" stroke-width="1" fill="none" transform="translate(0.000000, 1.000000)">
                                <circle id="Oval-5" fill="#FDBEBE" cx="23" cy="23" r="23"></circle>
                                <path d="M13.8125,13.8125 C16.3541794,11.2708206 19.4166488,10 23,10 C26.5833512,10 29.6458206,11.2708206 32.1875,13.8125 C34.7291794,16.3541794 36,19.4166488 36,23 C36,26.5833512 34.7291794,29.6458206 32.1875,32.1875 C29.6458206,34.7291794 26.5833512,36 23,36 C19.4166488,36 16.3541794,34.7291794 13.8125,32.1875 C11.2708206,29.6458206 10,26.5833512 10,23 C10,19.4166488 11.2708206,16.3541794 13.8125,13.8125 Z M24.5,29.5 L24.5,27 L21.5,27 L21.5,29.5 L24.5,29.5 Z M24.5,24 L24.5,16 L21.5,16 L21.5,24 L24.5,24 Z" id="ion-android-alert---Ionicons" fill="#F75353"></path>
                            </g>
                            <path d="M69.44,14.36 C69.5573339,14.36 69.6586662,14.4026662 69.744,14.488 C69.8293338,14.5733338 69.872,14.6746661 69.872,14.792 L69.872,15.928 C69.872,16.0453339 69.8293338,16.1466662 69.744,16.232 C69.6586662,16.3173338 69.5573339,16.36 69.44,16.36 L62.432,16.36 C62.3146661,16.36 62.2133338,16.3173338 62.128,16.232 C62.0426662,16.1466662 62,16.0453339 62,15.928 L62,5.592 C62,5.47466608 62.0426662,5.37333376 62.128,5.288 C62.2133338,5.20266624 62.3146661,5.16 62.432,5.16 L63.728,5.16 C63.8453339,5.16 63.9466662,5.20266624 64.032,5.288 C64.1173338,5.37333376 64.16,5.47466608 64.16,5.592 L64.16,14.36 L69.44,14.36 Z M74.928,7.88 C75.5146696,7.88 76.045331,7.97066576 76.52,8.152 C76.994669,8.33333424 77.4053316,8.5839984 77.752,8.904 C78.0986684,9.2240016 78.375999,9.5973312 78.584,10.024 C78.792001,10.4506688 78.9119998,10.9093309 78.944,11.4 C78.9546667,11.4960005 78.96,11.6186659 78.96,11.768 L78.96,12.656 C78.96,12.8000007 78.9546667,12.9199995 78.944,13.016 C78.9013331,13.5066691 78.7786677,13.9653312 78.576,14.392 C78.3733323,14.8186688 78.0986684,15.1893318 77.752,15.504 C77.4053316,15.8186682 76.994669,16.0666658 76.52,16.248 C76.045331,16.4293342 75.5146696,16.52 74.928,16.52 C74.3413304,16.52 73.810669,16.4293342 73.336,16.248 C72.861331,16.0666658 72.4506684,15.8186682 72.104,15.504 C71.7573316,15.1893318 71.4826677,14.8186688 71.28,14.392 C71.0773323,13.9653312 70.9546669,13.5066691 70.912,13.016 C70.9013333,12.9199995 70.8933334,12.8000007 70.888,12.656 C70.8826666,12.5119993 70.88,12.3653341 70.88,12.216 C70.88,12.0666659 70.8826666,11.9173341 70.888,11.768 C70.8933334,11.6186659 70.9013333,11.4960005 70.912,11.4 C70.9440002,10.9093309 71.063999,10.4506688 71.272,10.024 C71.480001,9.5973312 71.7573316,9.2240016 72.104,8.904 C72.4506684,8.5839984 72.861331,8.33333424 73.336,8.152 C73.810669,7.97066576 74.3413304,7.88 74.928,7.88 Z M76.864,11.48 C76.8319998,11.1493317 76.7546673,10.8746678 76.632,10.656 C76.5093327,10.4373322 76.3573342,10.2640006 76.176,10.136 C75.9946658,10.0079994 75.7973344,9.92000024 75.584,9.872 C75.3706656,9.82399976 75.1520011,9.8 74.928,9.8 C74.7039989,9.8 74.4853344,9.82399976 74.272,9.872 C74.0586656,9.92000024 73.8613342,10.0079994 73.68,10.136 C73.4986658,10.2640006 73.3466673,10.4373322 73.224,10.656 C73.1013327,10.8746678 73.0240002,11.1493317 72.992,11.48 C72.9813333,11.5653338 72.9733334,11.6719994 72.968,11.8 C72.9626666,11.9280006 72.96,12.0613326 72.96,12.2 C72.96,12.3386674 72.9626666,12.474666 72.968,12.608 C72.9733334,12.741334 72.9813333,12.845333 72.992,12.92 C73.0240002,13.2506683 73.1013327,13.5253322 73.224,13.744 C73.3466673,13.9626678 73.4986658,14.1359994 73.68,14.264 C73.8613342,14.3920006 74.0586656,14.4799998 74.272,14.528 C74.4853344,14.5760002 74.7039989,14.6 74.928,14.6 C75.1520011,14.6 75.3706656,14.5760002 75.584,14.528 C75.7973344,14.4799998 75.9946658,14.3920006 76.176,14.264 C76.3573342,14.1359994 76.5093327,13.9626678 76.632,13.744 C76.7546673,13.5253322 76.8319998,13.2506683 76.864,12.92 C76.8746667,12.845333 76.88,12.741334 76.88,12.608 L76.88,11.8 C76.88,11.6719994 76.8746667,11.5653338 76.864,11.48 Z M83.52,16.36 C83.3599992,16.36 83.242667,16.3173338 83.168,16.232 C83.093333,16.1466662 83.0346669,16.0560005 82.992,15.96 L79.776,8.584 C79.7653333,8.55199984 79.76,8.51466688 79.76,8.472 C79.76,8.35466608 79.8026662,8.25333376 79.888,8.168 C79.9733338,8.08266624 80.0746661,8.04 80.192,8.04 L81.392,8.04 C81.5520008,8.04 81.669333,8.08266624 81.744,8.168 C81.818667,8.25333376 81.8773331,8.33866624 81.92,8.424 L84.048,13.384 L86.176,8.424 C86.2186669,8.33866624 86.277333,8.25333376 86.352,8.168 C86.426667,8.08266624 86.5439992,8.04 86.704,8.04 L87.904,8.04 C88.0213339,8.04 88.1226662,8.08266624 88.208,8.168 C88.2933338,8.25333376 88.336,8.35466608 88.336,8.472 C88.336,8.51466688 88.3306667,8.55199984 88.32,8.584 L85.104,15.96 C85.0613331,16.0560005 85.002667,16.1466662 84.928,16.232 C84.853333,16.3173338 84.7360008,16.36 84.576,16.36 L83.52,16.36 Z M89.104,12.2 C89.104,11.6026637 89.1946658,11.0400026 89.376,10.512 C89.5573342,9.98399736 89.818665,9.52533528 90.16,9.136 C90.501335,8.74666472 90.9146642,8.44000112 91.4,8.216 C91.8853358,7.99199888 92.4266637,7.88 93.024,7.88 C93.6213363,7.88 94.1626642,7.98933224 94.648,8.208 C95.1333358,8.42666776 95.546665,8.71999816 95.888,9.088 C96.229335,9.45600184 96.4933324,9.88799752 96.68,10.384 C96.8666676,10.8800025 96.96,11.3999973 96.96,11.944 L96.96,12.664 C96.96,12.7813339 96.9173338,12.8826662 96.832,12.968 C96.7466662,13.0533338 96.6453339,13.096 96.528,13.096 L91.184,13.096 C91.184,13.3413346 91.2346662,13.5573324 91.336,13.744 C91.4373338,13.9306676 91.5733325,14.0879994 91.744,14.216 C91.9146675,14.3440006 92.1119989,14.4399997 92.336,14.504 C92.5600011,14.5680003 92.7893322,14.6 93.024,14.6 C93.365335,14.6 93.6426656,14.5653337 93.856,14.496 C94.0693344,14.4266663 94.2453326,14.3386672 94.384,14.232 C94.5013339,14.1466662 94.597333,14.0880002 94.672,14.056 C94.746667,14.0239998 94.8479994,14.008 94.976,14.008 L96.256,14.008 C96.3733339,14.008 96.4773329,14.0506662 96.568,14.136 C96.6586671,14.2213338 96.6986667,14.3226661 96.688,14.44 C96.6773333,14.5893341 96.5946674,14.7813322 96.44,15.016 C96.2853326,15.2506678 96.0533349,15.4799989 95.744,15.704 C95.4346651,15.9280011 95.0533356,16.1199992 94.6,16.28 C94.1466644,16.4400008 93.6213363,16.52 93.024,16.52 C92.4266637,16.52 91.8853358,16.416001 91.4,16.208 C90.9146642,15.999999 90.501335,15.7040019 90.16,15.32 C89.818665,14.9359981 89.5573342,14.4800026 89.376,13.952 C89.1946658,13.4239974 89.104,12.8400032 89.104,12.2 Z M93.024,9.8 C92.7146651,9.8 92.4506678,9.84533288 92.232,9.936 C92.0133322,10.0266671 91.8293341,10.1439993 91.68,10.288 C91.5306659,10.4320007 91.4160004,10.5919991 91.336,10.768 C91.2559996,10.9440009 91.2053334,11.1119992 91.184,11.272 L94.8,11.272 C94.7786666,11.1119992 94.738667,10.9440009 94.68,10.768 C94.621333,10.5919991 94.525334,10.4320007 94.392,10.288 C94.258666,10.1439993 94.0826678,10.0266671 93.864,9.936 C93.6453322,9.84533288 93.365335,9.8 93.024,9.8 Z M100.784,15.928 C100.784,16.0453339 100.741334,16.1466662 100.656,16.232 C100.570666,16.3173338 100.469334,16.36 100.352,16.36 L99.136,16.36 C99.0186661,16.36 98.9173338,16.3173338 98.832,16.232 C98.7466662,16.1466662 98.704,16.0453339 98.704,15.928 L98.704,5.432 C98.704,5.31466608 98.7466662,5.21333376 98.832,5.128 C98.9173338,5.04266624 99.0186661,5 99.136,5 L100.352,5 C100.469334,5 100.570666,5.04266624 100.656,5.128 C100.741334,5.21333376 100.784,5.31466608 100.784,5.432 L100.784,15.928 Z M102.992,10.088 C103.034667,9.86399888 103.133333,9.62400128 103.288,9.368 C103.442667,9.11199872 103.661332,8.87200112 103.944,8.648 C104.226668,8.42399888 104.573331,8.24000072 104.984,8.096 C105.394669,7.95199928 105.871997,7.88 106.416,7.88 C106.960003,7.88 107.450664,7.95199928 107.888,8.096 C108.325336,8.24000072 108.701332,8.45066528 109.016,8.728 C109.330668,9.00533472 109.573332,9.35466456 109.744,9.776 C109.914668,10.1973354 110,10.6799973 110,11.224 L110,15.928 C110,16.0453339 109.957334,16.1466662 109.872,16.232 C109.786666,16.3173338 109.685334,16.36 109.568,16.36 L108.352,16.36 C108.234666,16.36 108.133334,16.3173338 108.048,16.232 C107.962666,16.1466662 107.92,16.0453339 107.92,15.928 L107.92,15.4 C107.695999,15.7093349 107.373335,15.9733322 106.952,16.192 C106.530665,16.4106678 105.99467,16.52 105.344,16.52 C104.885331,16.52 104.474668,16.4586673 104.112,16.336 C103.749332,16.2133327 103.445335,16.0400011 103.2,15.816 C102.954665,15.5919989 102.765334,15.3280015 102.632,15.024 C102.498666,14.7199985 102.432,14.3866685 102.432,14.024 C102.432,13.2879963 102.693331,12.7120021 103.216,12.296 C103.738669,11.8799979 104.437329,11.5973341 105.312,11.448 L107.92,11 C107.92,10.5626645 107.776001,10.2533342 107.488,10.072 C107.199999,9.89066576 106.842669,9.8 106.416,9.8 C106.149332,9.8 105.941334,9.83733296 105.792,9.912 C105.642666,9.98666704 105.498667,10.0879994 105.36,10.216 C105.264,10.3013338 105.176,10.3599998 105.096,10.392 C105.016,10.4240002 104.928,10.44 104.832,10.44 L103.344,10.44 C103.237333,10.44 103.146667,10.4080003 103.072,10.344 C102.997333,10.2799997 102.970667,10.1946672 102.992,10.088 Z M105.664,14.6 C106.026668,14.6 106.349332,14.5493338 106.632,14.448 C106.914668,14.3466662 107.151999,14.2106675 107.344,14.04 C107.536001,13.8693325 107.68,13.6773344 107.776,13.464 C107.872,13.2506656 107.92,13.0320011 107.92,12.808 L107.92,12.648 L105.744,13.032 C105.306664,13.106667 104.992001,13.2159993 104.8,13.36 C104.607999,13.5040007 104.512,13.6986654 104.512,13.944 C104.512,14.1680011 104.626666,14.3333328 104.856,14.44 C105.085334,14.5466672 105.354665,14.6 105.664,14.6 Z M113.808,11.64 C113.786667,11.8000008 113.776,11.9866656 113.776,12.2 C113.776,12.4133344 113.786667,12.5999992 113.808,12.76 C113.84,13.0906683 113.914666,13.3733322 114.032,13.608 C114.149334,13.8426678 114.295999,14.0319993 114.472,14.176 C114.648001,14.3200007 114.842666,14.4266663 115.056,14.496 C115.269334,14.5653337 115.487999,14.6 115.712,14.6 C115.978668,14.6 116.202666,14.5786669 116.384,14.536 C116.565334,14.4933331 116.719999,14.4320004 116.848,14.352 C116.976001,14.2719996 117.085333,14.1813338 117.176,14.08 C117.266667,13.9786662 117.354666,13.8640006 117.44,13.736 C117.504,13.6399995 117.578666,13.5440005 117.664,13.448 C117.749334,13.3519995 117.850666,13.304 117.968,13.304 L119.184,13.304 C119.301334,13.304 119.405333,13.3466662 119.496,13.432 C119.586667,13.5173338 119.626667,13.6186661 119.616,13.736 C119.605333,13.9600011 119.525334,14.2319984 119.376,14.552 C119.226666,14.8720016 118.994668,15.1786652 118.68,15.472 C118.365332,15.7653348 117.962669,16.0133323 117.472,16.216 C116.981331,16.4186677 116.39467,16.52 115.712,16.52 C115.12533,16.52 114.597336,16.4213343 114.128,16.224 C113.658664,16.0266657 113.250668,15.7600017 112.904,15.424 C112.557332,15.0879983 112.285334,14.6986689 112.088,14.256 C111.890666,13.8133311 111.770667,13.3466691 111.728,12.856 C111.706667,12.663999 111.696,12.4506678 111.696,12.216 C111.696,11.9813322 111.706667,11.7626677 111.728,11.56 C111.76,11.0693309 111.877332,10.6000022 112.08,10.152 C112.282668,9.70399776 112.554665,9.31200168 112.896,8.976 C113.237335,8.63999832 113.645331,8.37333432 114.12,8.176 C114.594669,7.97866568 115.12533,7.88 115.712,7.88 C116.39467,7.88 116.981331,7.98133232 117.472,8.184 C117.962669,8.38666768 118.365332,8.6346652 118.68,8.928 C118.994668,9.2213348 119.226666,9.5279984 119.376,9.848 C119.525334,10.1680016 119.605333,10.4399989 119.616,10.664 C119.626667,10.7813339 119.586667,10.8826662 119.496,10.968 C119.405333,11.0533338 119.301334,11.096 119.184,11.096 L117.968,11.096 C117.850666,11.096 117.749334,11.0480005 117.664,10.952 C117.578666,10.8559995 117.504,10.7600005 117.44,10.664 C117.354666,10.5359994 117.266667,10.4213338 117.176,10.32 C117.085333,10.2186662 116.976001,10.1280004 116.848,10.048 C116.719999,9.9679996 116.565334,9.90666688 116.384,9.864 C116.202666,9.82133312 115.978668,9.8 115.712,9.8 C115.487999,9.8 115.269334,9.83466632 115.056,9.904 C114.842666,9.97333368 114.648001,10.0799993 114.472,10.224 C114.295999,10.3680007 114.149334,10.5573322 114.032,10.792 C113.914666,11.0266678 113.84,11.3093317 113.808,11.64 Z M120.944,12.2 C120.944,11.6026637 121.034666,11.0400026 121.216,10.512 C121.397334,9.98399736 121.658665,9.52533528 122,9.136 C122.341335,8.74666472 122.754664,8.44000112 123.24,8.216 C123.725336,7.99199888 124.266664,7.88 124.864,7.88 C125.461336,7.88 126.002664,7.98933224 126.488,8.208 C126.973336,8.42666776 127.386665,8.71999816 127.728,9.088 C128.069335,9.45600184 128.333332,9.88799752 128.52,10.384 C128.706668,10.8800025 128.8,11.3999973 128.8,11.944 L128.8,12.664 C128.8,12.7813339 128.757334,12.8826662 128.672,12.968 C128.586666,13.0533338 128.485334,13.096 128.368,13.096 L123.024,13.096 C123.024,13.3413346 123.074666,13.5573324 123.176,13.744 C123.277334,13.9306676 123.413332,14.0879994 123.584,14.216 C123.754668,14.3440006 123.951999,14.4399997 124.176,14.504 C124.400001,14.5680003 124.629332,14.6 124.864,14.6 C125.205335,14.6 125.482666,14.5653337 125.696,14.496 C125.909334,14.4266663 126.085333,14.3386672 126.224,14.232 C126.341334,14.1466662 126.437333,14.0880002 126.512,14.056 C126.586667,14.0239998 126.687999,14.008 126.816,14.008 L128.096,14.008 C128.213334,14.008 128.317333,14.0506662 128.408,14.136 C128.498667,14.2213338 128.538667,14.3226661 128.528,14.44 C128.517333,14.5893341 128.434667,14.7813322 128.28,15.016 C128.125333,15.2506678 127.893335,15.4799989 127.584,15.704 C127.274665,15.9280011 126.893336,16.1199992 126.44,16.28 C125.986664,16.4400008 125.461336,16.52 124.864,16.52 C124.266664,16.52 123.725336,16.416001 123.24,16.208 C122.754664,15.999999 122.341335,15.7040019 122,15.32 C121.658665,14.9359981 121.397334,14.4800026 121.216,13.952 C121.034666,13.4239974 120.944,12.8400032 120.944,12.2 Z M124.864,9.8 C124.554665,9.8 124.290668,9.84533288 124.072,9.936 C123.853332,10.0266671 123.669334,10.1439993 123.52,10.288 C123.370666,10.4320007 123.256,10.5919991 123.176,10.768 C123.096,10.9440009 123.045333,11.1119992 123.024,11.272 L126.64,11.272 C126.618667,11.1119992 126.578667,10.9440009 126.52,10.768 C126.461333,10.5919991 126.365334,10.4320007 126.232,10.288 C126.098666,10.1439993 125.922668,10.0266671 125.704,9.936 C125.485332,9.84533288 125.205335,9.8 124.864,9.8 Z M130.464,14.552 C130.485333,14.4026659 130.551999,14.261334 130.664,14.128 C130.776001,13.994666 130.938666,13.928 131.152,13.928 L132.544,13.928 C132.64,13.928 132.722666,13.9626663 132.792,14.032 C132.861334,14.1013337 132.896,14.1839995 132.896,14.28 C132.896,14.3226669 132.890667,14.3599998 132.88,14.392 L131.824,17.048 C131.781333,17.1546672 131.709334,17.2666661 131.608,17.384 C131.506666,17.5013339 131.349334,17.56 131.136,17.56 L130.416,17.56 C130.32,17.56 130.237334,17.5253337 130.168,17.456 C130.098666,17.3866663 130.064,17.3040005 130.064,17.208 L130.064,17.176 L130.464,14.552 Z M139.024,16.36 C138.906666,16.36 138.805334,16.3173338 138.72,16.232 C138.634666,16.1466662 138.592,16.0453339 138.592,15.928 L138.592,5.592 C138.592,5.47466608 138.634666,5.37333376 138.72,5.288 C138.805334,5.20266624 138.906666,5.16 139.024,5.16 L140.32,5.16 C140.437334,5.16 140.538666,5.20266624 140.624,5.288 C140.709334,5.37333376 140.752,5.47466608 140.752,5.592 L140.752,15.928 C140.752,16.0453339 140.709334,16.1466662 140.624,16.232 C140.538666,16.3173338 140.437334,16.36 140.32,16.36 L139.024,16.36 Z M150.912,15.928 C150.912,16.0453339 150.869334,16.1466662 150.784,16.232 C150.698666,16.3173338 150.597334,16.36 150.48,16.36 L149.264,16.36 C149.146666,16.36 149.045334,16.3173338 148.96,16.232 C148.874666,16.1466662 148.832,16.0453339 148.832,15.928 L148.832,11.864 C148.832,11.2239968 148.682668,10.7120019 148.384,10.328 C148.085332,9.94399808 147.62667,9.752 147.008,9.752 C146.442664,9.752 145.997335,9.94399808 145.672,10.328 C145.346665,10.7120019 145.184,11.2239968 145.184,11.864 L145.184,15.928 C145.184,16.0453339 145.141334,16.1466662 145.056,16.232 C144.970666,16.3173338 144.869334,16.36 144.752,16.36 L143.536,16.36 C143.418666,16.36 143.317334,16.3173338 143.232,16.232 C143.146666,16.1466662 143.104,16.0453339 143.104,15.928 L143.104,8.472 C143.104,8.35466608 143.146666,8.25333376 143.232,8.168 C143.317334,8.08266624 143.418666,8.04 143.536,8.04 L144.752,8.04 C144.869334,8.04 144.970666,8.08266624 145.056,8.168 C145.141334,8.25333376 145.184,8.35466608 145.184,8.472 L145.184,8.84 C145.461335,8.56266528 145.786665,8.33333424 146.16,8.152 C146.533335,7.97066576 146.975997,7.88 147.488,7.88 C148.13867,7.88 148.682664,7.98133232 149.12,8.184 C149.557336,8.38666768 149.909332,8.65866496 150.176,9 C150.442668,9.34133504 150.631999,9.7386644 150.744,10.192 C150.856001,10.6453356 150.912,11.1226642 150.912,11.624 L150.912,15.928 Z M154.72,11.64 C154.698667,11.8000008 154.688,11.9866656 154.688,12.2 C154.688,12.4133344 154.698667,12.5999992 154.72,12.76 C154.752,13.0906683 154.826666,13.3733322 154.944,13.608 C155.061334,13.8426678 155.207999,14.0319993 155.384,14.176 C155.560001,14.3200007 155.754666,14.4266663 155.968,14.496 C156.181334,14.5653337 156.399999,14.6 156.624,14.6 C156.890668,14.6 157.114666,14.5786669 157.296,14.536 C157.477334,14.4933331 157.631999,14.4320004 157.76,14.352 C157.888001,14.2719996 157.997333,14.1813338 158.088,14.08 C158.178667,13.9786662 158.266666,13.8640006 158.352,13.736 C158.416,13.6399995 158.490666,13.5440005 158.576,13.448 C158.661334,13.3519995 158.762666,13.304 158.88,13.304 L160.096,13.304 C160.213334,13.304 160.317333,13.3466662 160.408,13.432 C160.498667,13.5173338 160.538667,13.6186661 160.528,13.736 C160.517333,13.9600011 160.437334,14.2319984 160.288,14.552 C160.138666,14.8720016 159.906668,15.1786652 159.592,15.472 C159.277332,15.7653348 158.874669,16.0133323 158.384,16.216 C157.893331,16.4186677 157.30667,16.52 156.624,16.52 C156.03733,16.52 155.509336,16.4213343 155.04,16.224 C154.570664,16.0266657 154.162668,15.7600017 153.816,15.424 C153.469332,15.0879983 153.197334,14.6986689 153,14.256 C152.802666,13.8133311 152.682667,13.3466691 152.64,12.856 C152.618667,12.663999 152.608,12.4506678 152.608,12.216 C152.608,11.9813322 152.618667,11.7626677 152.64,11.56 C152.672,11.0693309 152.789332,10.6000022 152.992,10.152 C153.194668,9.70399776 153.466665,9.31200168 153.808,8.976 C154.149335,8.63999832 154.557331,8.37333432 155.032,8.176 C155.506669,7.97866568 156.03733,7.88 156.624,7.88 C157.30667,7.88 157.893331,7.98133232 158.384,8.184 C158.874669,8.38666768 159.277332,8.6346652 159.592,8.928 C159.906668,9.2213348 160.138666,9.5279984 160.288,9.848 C160.437334,10.1680016 160.517333,10.4399989 160.528,10.664 C160.538667,10.7813339 160.498667,10.8826662 160.408,10.968 C160.317333,11.0533338 160.213334,11.096 160.096,11.096 L158.88,11.096 C158.762666,11.096 158.661334,11.0480005 158.576,10.952 C158.490666,10.8559995 158.416,10.7600005 158.352,10.664 C158.266666,10.5359994 158.178667,10.4213338 158.088,10.32 C157.997333,10.2186662 157.888001,10.1280004 157.76,10.048 C157.631999,9.9679996 157.477334,9.90666688 157.296,9.864 C157.114666,9.82133312 156.890668,9.8 156.624,9.8 C156.399999,9.8 156.181334,9.83466632 155.968,9.904 C155.754666,9.97333368 155.560001,10.0799993 155.384,10.224 C155.207999,10.3680007 155.061334,10.5573322 154.944,10.792 C154.826666,11.0266678 154.752,11.3093317 154.72,11.64 Z M169.12,7.88 C169.450668,7.88 169.746665,7.91199968 170.008,7.976 C170.269335,8.04000032 170.498666,8.11999952 170.696,8.216 C170.893334,8.31200048 171.061333,8.41599944 171.2,8.528 C171.338667,8.64000056 171.450666,8.74399952 171.536,8.84 L171.536,5.432 C171.536,5.31466608 171.578666,5.21333376 171.664,5.128 C171.749334,5.04266624 171.850666,5 171.968,5 L173.184,5 C173.301334,5 173.402666,5.04266624 173.488,5.128 C173.573334,5.21333376 173.616,5.31466608 173.616,5.432 L173.616,15.928 C173.616,16.0453339 173.573334,16.1466662 173.488,16.232 C173.402666,16.3173338 173.301334,16.36 173.184,16.36 L171.968,16.36 C171.850666,16.36 171.749334,16.3173338 171.664,16.232 C171.578666,16.1466662 171.536,16.0453339 171.536,15.928 L171.536,15.56 C171.450666,15.6560005 171.338667,15.7599994 171.2,15.872 C171.061333,15.9840006 170.893334,16.0879995 170.696,16.184 C170.498666,16.2800005 170.269335,16.3599997 170.008,16.424 C169.746665,16.4880003 169.450668,16.52 169.12,16.52 C168.586664,16.52 168.104002,16.416001 167.672,16.208 C167.239998,15.999999 166.872002,15.7226684 166.568,15.376 C166.263998,15.0293316 166.024001,14.6293356 165.848,14.176 C165.671999,13.7226644 165.573333,13.2506691 165.552,12.76 C165.541333,12.5999992 165.536,12.4133344 165.536,12.2 C165.536,11.9866656 165.541333,11.8000008 165.552,11.64 C165.573333,11.1493309 165.671999,10.6773356 165.848,10.224 C166.024001,9.7706644 166.263998,9.3706684 166.568,9.024 C166.872002,8.6773316 167.239998,8.40000104 167.672,8.192 C168.104002,7.98399896 168.586664,7.88 169.12,7.88 Z M167.632,11.752 C167.6,12.0506682 167.6,12.3493318 167.632,12.648 C167.696,13.3413368 167.909332,13.8399985 168.272,14.144 C168.634668,14.4480015 169.077331,14.6 169.6,14.6 C170.122669,14.6 170.562665,14.4453349 170.92,14.136 C171.277335,13.8266651 171.482666,13.3840029 171.536,12.808 C171.557333,12.6479992 171.568,12.4453346 171.568,12.2 C171.568,11.9546654 171.557333,11.7520008 171.536,11.592 C171.482666,11.0373306 171.277335,10.6000016 170.92,10.28 C170.562665,9.9599984 170.122669,9.8 169.6,9.8 C169.077331,9.8 168.634668,9.95199848 168.272,10.256 C167.909332,10.5600015 167.696,11.0586632 167.632,11.752 Z M179.712,9.96 C179.071997,9.96 178.610668,10.1013319 178.328,10.384 C178.045332,10.6666681 177.904,11.1279968 177.904,11.768 L177.904,15.928 C177.904,16.0453339 177.861334,16.1466662 177.776,16.232 C177.690666,16.3173338 177.589334,16.36 177.472,16.36 L176.256,16.36 C176.138666,16.36 176.037334,16.3173338 175.952,16.232 C175.866666,16.1466662 175.824,16.0453339 175.824,15.928 L175.824,8.472 C175.824,8.35466608 175.866666,8.25333376 175.952,8.168 C176.037334,8.08266624 176.138666,8.04 176.256,8.04 L177.472,8.04 C177.589334,8.04 177.690666,8.08266624 177.776,8.168 C177.861334,8.25333376 177.904,8.35466608 177.904,8.472 L177.904,8.84 C178.181335,8.58399872 178.477332,8.38666736 178.792,8.248 C179.106668,8.10933264 179.519997,8.04 180.032,8.04 L180.752,8.04 C180.869334,8.04 180.970666,8.08266624 181.056,8.168 C181.141334,8.25333376 181.184,8.35466608 181.184,8.472 L181.184,9.528 C181.184,9.64533392 181.141334,9.74666624 181.056,9.832 C180.970666,9.91733376 180.869334,9.96 180.752,9.96 L179.712,9.96 Z M186.048,7.88 C186.63467,7.88 187.165331,7.97066576 187.64,8.152 C188.114669,8.33333424 188.525332,8.5839984 188.872,8.904 C189.218668,9.2240016 189.495999,9.5973312 189.704,10.024 C189.912001,10.4506688 190.032,10.9093309 190.064,11.4 C190.074667,11.4960005 190.08,11.6186659 190.08,11.768 L190.08,12.656 C190.08,12.8000007 190.074667,12.9199995 190.064,13.016 C190.021333,13.5066691 189.898668,13.9653312 189.696,14.392 C189.493332,14.8186688 189.218668,15.1893318 188.872,15.504 C188.525332,15.8186682 188.114669,16.0666658 187.64,16.248 C187.165331,16.4293342 186.63467,16.52 186.048,16.52 C185.46133,16.52 184.930669,16.4293342 184.456,16.248 C183.981331,16.0666658 183.570668,15.8186682 183.224,15.504 C182.877332,15.1893318 182.602668,14.8186688 182.4,14.392 C182.197332,13.9653312 182.074667,13.5066691 182.032,13.016 C182.021333,12.9199995 182.013333,12.8000007 182.008,12.656 C182.002667,12.5119993 182,12.3653341 182,12.216 C182,12.0666659 182.002667,11.9173341 182.008,11.768 C182.013333,11.6186659 182.021333,11.4960005 182.032,11.4 C182.064,10.9093309 182.183999,10.4506688 182.392,10.024 C182.600001,9.5973312 182.877332,9.2240016 183.224,8.904 C183.570668,8.5839984 183.981331,8.33333424 184.456,8.152 C184.930669,7.97066576 185.46133,7.88 186.048,7.88 Z M187.984,11.48 C187.952,11.1493317 187.874667,10.8746678 187.752,10.656 C187.629333,10.4373322 187.477334,10.2640006 187.296,10.136 C187.114666,10.0079994 186.917334,9.92000024 186.704,9.872 C186.490666,9.82399976 186.272001,9.8 186.048,9.8 C185.823999,9.8 185.605334,9.82399976 185.392,9.872 C185.178666,9.92000024 184.981334,10.0079994 184.8,10.136 C184.618666,10.2640006 184.466667,10.4373322 184.344,10.656 C184.221333,10.8746678 184.144,11.1493317 184.112,11.48 C184.101333,11.5653338 184.093333,11.6719994 184.088,11.8 C184.082667,11.9280006 184.08,12.0613326 184.08,12.2 C184.08,12.3386674 184.082667,12.474666 184.088,12.608 C184.093333,12.741334 184.101333,12.845333 184.112,12.92 C184.144,13.2506683 184.221333,13.5253322 184.344,13.744 C184.466667,13.9626678 184.618666,14.1359994 184.8,14.264 C184.981334,14.3920006 185.178666,14.4799998 185.392,14.528 C185.605334,14.5760002 185.823999,14.6 186.048,14.6 C186.272001,14.6 186.490666,14.5760002 186.704,14.528 C186.917334,14.4799998 187.114666,14.3920006 187.296,14.264 C187.477334,14.1359994 187.629333,13.9626678 187.752,13.744 C187.874667,13.5253322 187.952,13.2506683 187.984,12.92 C187.994667,12.845333 188,12.741334 188,12.608 L188,11.8 C188,11.6719994 187.994667,11.5653338 187.984,11.48 Z M196.4,16.52 C196.069332,16.52 195.773335,16.4880003 195.512,16.424 C195.250665,16.3599997 195.021334,16.2800005 194.824,16.184 C194.626666,16.0879995 194.458667,15.9840006 194.32,15.872 C194.181333,15.7599994 194.069334,15.6560005 193.984,15.56 L193.984,18.968 C193.984,19.0853339 193.941334,19.1866662 193.856,19.272 C193.770666,19.3573338 193.669334,19.4 193.552,19.4 L192.336,19.4 C192.218666,19.4 192.117334,19.3573338 192.032,19.272 C191.946666,19.1866662 191.904,19.0853339 191.904,18.968 L191.904,8.472 C191.904,8.35466608 191.946666,8.25333376 192.032,8.168 C192.117334,8.08266624 192.218666,8.04 192.336,8.04 L193.552,8.04 C193.669334,8.04 193.770666,8.08266624 193.856,8.168 C193.941334,8.25333376 193.984,8.35466608 193.984,8.472 L193.984,8.84 C194.069334,8.74399952 194.181333,8.64000056 194.32,8.528 C194.458667,8.41599944 194.626666,8.31200048 194.824,8.216 C195.021334,8.11999952 195.250665,8.04000032 195.512,7.976 C195.773335,7.91199968 196.069332,7.88 196.4,7.88 C196.933336,7.88 197.415998,7.98399896 197.848,8.192 C198.280002,8.40000104 198.647998,8.6773316 198.952,9.024 C199.256002,9.3706684 199.495999,9.7706644 199.672,10.224 C199.848001,10.6773356 199.946667,11.1493309 199.968,11.64 C199.978667,11.8000008 199.984,11.9866656 199.984,12.2 C199.984,12.4133344 199.978667,12.5999992 199.968,12.76 C199.946667,13.2506691 199.848001,13.7226644 199.672,14.176 C199.495999,14.6293356 199.256002,15.0293316 198.952,15.376 C198.647998,15.7226684 198.280002,15.999999 197.848,16.208 C197.415998,16.416001 196.933336,16.52 196.4,16.52 Z M197.888,12.648 C197.92,12.3493318 197.92,12.0506682 197.888,11.752 C197.824,11.0586632 197.610668,10.5600015 197.248,10.256 C196.885332,9.95199848 196.442669,9.8 195.92,9.8 C195.397331,9.8 194.957335,9.95466512 194.6,10.264 C194.242665,10.5733349 194.037334,11.0159971 193.984,11.592 C193.962667,11.7520008 193.952,11.9546654 193.952,12.2 C193.952,12.4453346 193.962667,12.6479992 193.984,12.808 C194.037334,13.3626694 194.242665,13.7999984 194.6,14.12 C194.957335,14.4400016 195.397331,14.6 195.92,14.6 C196.442669,14.6 196.885332,14.4480015 197.248,14.144 C197.610668,13.8399985 197.824,13.3413368 197.888,12.648 Z M206.304,16.52 C205.973332,16.52 205.677335,16.4880003 205.416,16.424 C205.154665,16.3599997 204.925334,16.2800005 204.728,16.184 C204.530666,16.0879995 204.362667,15.9840006 204.224,15.872 C204.085333,15.7599994 203.973334,15.6560005 203.888,15.56 L203.888,18.968 C203.888,19.0853339 203.845334,19.1866662 203.76,19.272 C203.674666,19.3573338 203.573334,19.4 203.456,19.4 L202.24,19.4 C202.122666,19.4 202.021334,19.3573338 201.936,19.272 C201.850666,19.1866662 201.808,19.0853339 201.808,18.968 L201.808,8.472 C201.808,8.35466608 201.850666,8.25333376 201.936,8.168 C202.021334,8.08266624 202.122666,8.04 202.24,8.04 L203.456,8.04 C203.573334,8.04 203.674666,8.08266624 203.76,8.168 C203.845334,8.25333376 203.888,8.35466608 203.888,8.472 L203.888,8.84 C203.973334,8.74399952 204.085333,8.64000056 204.224,8.528 C204.362667,8.41599944 204.530666,8.31200048 204.728,8.216 C204.925334,8.11999952 205.154665,8.04000032 205.416,7.976 C205.677335,7.91199968 205.973332,7.88 206.304,7.88 C206.837336,7.88 207.319998,7.98399896 207.752,8.192 C208.184002,8.40000104 208.551998,8.6773316 208.856,9.024 C209.160002,9.3706684 209.399999,9.7706644 209.576,10.224 C209.752001,10.6773356 209.850667,11.1493309 209.872,11.64 C209.882667,11.8000008 209.888,11.9866656 209.888,12.2 C209.888,12.4133344 209.882667,12.5999992 209.872,12.76 C209.850667,13.2506691 209.752001,13.7226644 209.576,14.176 C209.399999,14.6293356 209.160002,15.0293316 208.856,15.376 C208.551998,15.7226684 208.184002,15.999999 207.752,16.208 C207.319998,16.416001 206.837336,16.52 206.304,16.52 Z M207.792,12.648 C207.824,12.3493318 207.824,12.0506682 207.792,11.752 C207.728,11.0586632 207.514668,10.5600015 207.152,10.256 C206.789332,9.95199848 206.346669,9.8 205.824,9.8 C205.301331,9.8 204.861335,9.95466512 204.504,10.264 C204.146665,10.5733349 203.941334,11.0159971 203.888,11.592 C203.866667,11.7520008 203.856,11.9546654 203.856,12.2 C203.856,12.4453346 203.866667,12.6479992 203.888,12.808 C203.941334,13.3626694 204.146665,13.7999984 204.504,14.12 C204.861335,14.4400016 205.301331,14.6 205.824,14.6 C206.346669,14.6 206.789332,14.4480015 207.152,14.144 C207.514668,13.8399985 207.728,13.3413368 207.792,12.648 Z M211.296,12.2 C211.296,11.6026637 211.386666,11.0400026 211.568,10.512 C211.749334,9.98399736 212.010665,9.52533528 212.352,9.136 C212.693335,8.74666472 213.106664,8.44000112 213.592,8.216 C214.077336,7.99199888 214.618664,7.88 215.216,7.88 C215.813336,7.88 216.354664,7.98933224 216.84,8.208 C217.325336,8.42666776 217.738665,8.71999816 218.08,9.088 C218.421335,9.45600184 218.685332,9.88799752 218.872,10.384 C219.058668,10.8800025 219.152,11.3999973 219.152,11.944 L219.152,12.664 C219.152,12.7813339 219.109334,12.8826662 219.024,12.968 C218.938666,13.0533338 218.837334,13.096 218.72,13.096 L213.376,13.096 C213.376,13.3413346 213.426666,13.5573324 213.528,13.744 C213.629334,13.9306676 213.765332,14.0879994 213.936,14.216 C214.106668,14.3440006 214.303999,14.4399997 214.528,14.504 C214.752001,14.5680003 214.981332,14.6 215.216,14.6 C215.557335,14.6 215.834666,14.5653337 216.048,14.496 C216.261334,14.4266663 216.437333,14.3386672 216.576,14.232 C216.693334,14.1466662 216.789333,14.0880002 216.864,14.056 C216.938667,14.0239998 217.039999,14.008 217.168,14.008 L218.448,14.008 C218.565334,14.008 218.669333,14.0506662 218.76,14.136 C218.850667,14.2213338 218.890667,14.3226661 218.88,14.44 C218.869333,14.5893341 218.786667,14.7813322 218.632,15.016 C218.477333,15.2506678 218.245335,15.4799989 217.936,15.704 C217.626665,15.9280011 217.245336,16.1199992 216.792,16.28 C216.338664,16.4400008 215.813336,16.52 215.216,16.52 C214.618664,16.52 214.077336,16.416001 213.592,16.208 C213.106664,15.999999 212.693335,15.7040019 212.352,15.32 C212.010665,14.9359981 211.749334,14.4800026 211.568,13.952 C211.386666,13.4239974 211.296,12.8400032 211.296,12.2 Z M215.216,9.8 C214.906665,9.8 214.642668,9.84533288 214.424,9.936 C214.205332,10.0266671 214.021334,10.1439993 213.872,10.288 C213.722666,10.4320007 213.608,10.5919991 213.528,10.768 C213.448,10.9440009 213.397333,11.1119992 213.376,11.272 L216.992,11.272 C216.970667,11.1119992 216.930667,10.9440009 216.872,10.768 C216.813333,10.5919991 216.717334,10.4320007 216.584,10.288 C216.450666,10.1439993 216.274668,10.0266671 216.056,9.936 C215.837332,9.84533288 215.557335,9.8 215.216,9.8 Z M224.096,7.88 C224.426668,7.88 224.722665,7.91199968 224.984,7.976 C225.245335,8.04000032 225.474666,8.11999952 225.672,8.216 C225.869334,8.31200048 226.037333,8.41599944 226.176,8.528 C226.314667,8.64000056 226.426666,8.74399952 226.512,8.84 L226.512,5.432 C226.512,5.31466608 226.554666,5.21333376 226.64,5.128 C226.725334,5.04266624 226.826666,5 226.944,5 L228.16,5 C228.277334,5 228.378666,5.04266624 228.464,5.128 C228.549334,5.21333376 228.592,5.31466608 228.592,5.432 L228.592,15.928 C228.592,16.0453339 228.549334,16.1466662 228.464,16.232 C228.378666,16.3173338 228.277334,16.36 228.16,16.36 L226.944,16.36 C226.826666,16.36 226.725334,16.3173338 226.64,16.232 C226.554666,16.1466662 226.512,16.0453339 226.512,15.928 L226.512,15.56 C226.426666,15.6560005 226.314667,15.7599994 226.176,15.872 C226.037333,15.9840006 225.869334,16.0879995 225.672,16.184 C225.474666,16.2800005 225.245335,16.3599997 224.984,16.424 C224.722665,16.4880003 224.426668,16.52 224.096,16.52 C223.562664,16.52 223.080002,16.416001 222.648,16.208 C222.215998,15.999999 221.848002,15.7226684 221.544,15.376 C221.239998,15.0293316 221.000001,14.6293356 220.824,14.176 C220.647999,13.7226644 220.549333,13.2506691 220.528,12.76 C220.517333,12.5999992 220.512,12.4133344 220.512,12.2 C220.512,11.9866656 220.517333,11.8000008 220.528,11.64 C220.549333,11.1493309 220.647999,10.6773356 220.824,10.224 C221.000001,9.7706644 221.239998,9.3706684 221.544,9.024 C221.848002,8.6773316 222.215998,8.40000104 222.648,8.192 C223.080002,7.98399896 223.562664,7.88 224.096,7.88 Z M222.608,11.752 C222.576,12.0506682 222.576,12.3493318 222.608,12.648 C222.672,13.3413368 222.885332,13.8399985 223.248,14.144 C223.610668,14.4480015 224.053331,14.6 224.576,14.6 C225.098669,14.6 225.538665,14.4453349 225.896,14.136 C226.253335,13.8266651 226.458666,13.3840029 226.512,12.808 C226.533333,12.6479992 226.544,12.4453346 226.544,12.2 C226.544,11.9546654 226.533333,11.7520008 226.512,11.592 C226.458666,11.0373306 226.253335,10.6000016 225.896,10.28 C225.538665,9.9599984 225.098669,9.8 224.576,9.8 C224.053331,9.8 223.610668,9.95199848 223.248,10.256 C222.885332,10.5600015 222.672,11.0586632 222.608,11.752 Z M238.944,7.88 C239.477336,7.88 239.959998,7.98399896 240.392,8.192 C240.824002,8.40000104 241.191998,8.6773316 241.496,9.024 C241.800002,9.3706684 242.039999,9.7706644 242.216,10.224 C242.392001,10.6773356 242.490667,11.1493309 242.512,11.64 C242.522667,11.8000008 242.528,11.9866656 242.528,12.2 C242.528,12.4133344 242.522667,12.5999992 242.512,12.76 C242.490667,13.2506691 242.392001,13.7226644 242.216,14.176 C242.039999,14.6293356 241.800002,15.0293316 241.496,15.376 C241.191998,15.7226684 240.824002,15.999999 240.392,16.208 C239.959998,16.416001 239.477336,16.52 238.944,16.52 C238.613332,16.52 238.317335,16.4880003 238.056,16.424 C237.794665,16.3599997 237.565334,16.2800005 237.368,16.184 C237.170666,16.0879995 237.002667,15.9840006 236.864,15.872 C236.725333,15.7599994 236.613334,15.6560005 236.528,15.56 L236.528,15.928 C236.528,16.0453339 236.485334,16.1466662 236.4,16.232 C236.314666,16.3173338 236.213334,16.36 236.096,16.36 L234.88,16.36 C234.762666,16.36 234.661334,16.3173338 234.576,16.232 C234.490666,16.1466662 234.448,16.0453339 234.448,15.928 L234.448,5.432 C234.448,5.31466608 234.490666,5.21333376 234.576,5.128 C234.661334,5.04266624 234.762666,5 234.88,5 L236.096,5 C236.213334,5 236.314666,5.04266624 236.4,5.128 C236.485334,5.21333376 236.528,5.31466608 236.528,5.432 L236.528,8.84 C236.613334,8.74399952 236.725333,8.64000056 236.864,8.528 C237.002667,8.41599944 237.170666,8.31200048 237.368,8.216 C237.565334,8.11999952 237.794665,8.04000032 238.056,7.976 C238.317335,7.91199968 238.613332,7.88 238.944,7.88 Z M240.432,11.752 C240.368,11.0586632 240.154668,10.5600015 239.792,10.256 C239.429332,9.95199848 238.986669,9.8 238.464,9.8 C237.941331,9.8 237.501335,9.9599984 237.144,10.28 C236.786665,10.6000016 236.581334,11.0373306 236.528,11.592 C236.506667,11.7520008 236.496,11.9546654 236.496,12.2 C236.496,12.4453346 236.506667,12.6479992 236.528,12.808 C236.581334,13.3840029 236.786665,13.8266651 237.144,14.136 C237.501335,14.4453349 237.941331,14.6 238.464,14.6 C238.986669,14.6 239.429332,14.4480015 239.792,14.144 C240.154668,13.8399985 240.368,13.3413368 240.432,12.648 C240.464,12.3493318 240.464,12.0506682 240.432,11.752 Z M243.936,12.2 C243.936,11.6026637 244.026666,11.0400026 244.208,10.512 C244.389334,9.98399736 244.650665,9.52533528 244.992,9.136 C245.333335,8.74666472 245.746664,8.44000112 246.232,8.216 C246.717336,7.99199888 247.258664,7.88 247.856,7.88 C248.453336,7.88 248.994664,7.98933224 249.48,8.208 C249.965336,8.42666776 250.378665,8.71999816 250.72,9.088 C251.061335,9.45600184 251.325332,9.88799752 251.512,10.384 C251.698668,10.8800025 251.792,11.3999973 251.792,11.944 L251.792,12.664 C251.792,12.7813339 251.749334,12.8826662 251.664,12.968 C251.578666,13.0533338 251.477334,13.096 251.36,13.096 L246.016,13.096 C246.016,13.3413346 246.066666,13.5573324 246.168,13.744 C246.269334,13.9306676 246.405332,14.0879994 246.576,14.216 C246.746668,14.3440006 246.943999,14.4399997 247.168,14.504 C247.392001,14.5680003 247.621332,14.6 247.856,14.6 C248.197335,14.6 248.474666,14.5653337 248.688,14.496 C248.901334,14.4266663 249.077333,14.3386672 249.216,14.232 C249.333334,14.1466662 249.429333,14.0880002 249.504,14.056 C249.578667,14.0239998 249.679999,14.008 249.808,14.008 L251.088,14.008 C251.205334,14.008 251.309333,14.0506662 251.4,14.136 C251.490667,14.2213338 251.530667,14.3226661 251.52,14.44 C251.509333,14.5893341 251.426667,14.7813322 251.272,15.016 C251.117333,15.2506678 250.885335,15.4799989 250.576,15.704 C250.266665,15.9280011 249.885336,16.1199992 249.432,16.28 C248.978664,16.4400008 248.453336,16.52 247.856,16.52 C247.258664,16.52 246.717336,16.416001 246.232,16.208 C245.746664,15.999999 245.333335,15.7040019 244.992,15.32 C244.650665,14.9359981 244.389334,14.4800026 244.208,13.952 C244.026666,13.4239974 243.936,12.8400032 243.936,12.2 Z M247.856,9.8 C247.546665,9.8 247.282668,9.84533288 247.064,9.936 C246.845332,10.0266671 246.661334,10.1439993 246.512,10.288 C246.362666,10.4320007 246.248,10.5919991 246.168,10.768 C246.088,10.9440009 246.037333,11.1119992 246.016,11.272 L249.632,11.272 C249.610667,11.1119992 249.570667,10.9440009 249.512,10.768 C249.453333,10.5919991 249.357334,10.4320007 249.224,10.288 C249.090666,10.1439993 248.914668,10.0266671 248.696,9.936 C248.477332,9.84533288 248.197335,9.8 247.856,9.8 Z M255.616,15.928 C255.616,16.0453339 255.573334,16.1466662 255.488,16.232 C255.402666,16.3173338 255.301334,16.36 255.184,16.36 L253.968,16.36 C253.850666,16.36 253.749334,16.3173338 253.664,16.232 C253.578666,16.1466662 253.536,16.0453339 253.536,15.928 L253.536,5.432 C253.536,5.31466608 253.578666,5.21333376 253.664,5.128 C253.749334,5.04266624 253.850666,5 253.968,5 L255.184,5 C255.301334,5 255.402666,5.04266624 255.488,5.128 C255.573334,5.21333376 255.616,5.31466608 255.616,5.432 L255.616,15.928 Z M261.488,7.88 C262.07467,7.88 262.605331,7.97066576 263.08,8.152 C263.554669,8.33333424 263.965332,8.5839984 264.312,8.904 C264.658668,9.2240016 264.935999,9.5973312 265.144,10.024 C265.352001,10.4506688 265.472,10.9093309 265.504,11.4 C265.514667,11.4960005 265.52,11.6186659 265.52,11.768 L265.52,12.656 C265.52,12.8000007 265.514667,12.9199995 265.504,13.016 C265.461333,13.5066691 265.338668,13.9653312 265.136,14.392 C264.933332,14.8186688 264.658668,15.1893318 264.312,15.504 C263.965332,15.8186682 263.554669,16.0666658 263.08,16.248 C262.605331,16.4293342 262.07467,16.52 261.488,16.52 C260.90133,16.52 260.370669,16.4293342 259.896,16.248 C259.421331,16.0666658 259.010668,15.8186682 258.664,15.504 C258.317332,15.1893318 258.042668,14.8186688 257.84,14.392 C257.637332,13.9653312 257.514667,13.5066691 257.472,13.016 C257.461333,12.9199995 257.453333,12.8000007 257.448,12.656 C257.442667,12.5119993 257.44,12.3653341 257.44,12.216 C257.44,12.0666659 257.442667,11.9173341 257.448,11.768 C257.453333,11.6186659 257.461333,11.4960005 257.472,11.4 C257.504,10.9093309 257.623999,10.4506688 257.832,10.024 C258.040001,9.5973312 258.317332,9.2240016 258.664,8.904 C259.010668,8.5839984 259.421331,8.33333424 259.896,8.152 C260.370669,7.97066576 260.90133,7.88 261.488,7.88 Z M263.424,11.48 C263.392,11.1493317 263.314667,10.8746678 263.192,10.656 C263.069333,10.4373322 262.917334,10.2640006 262.736,10.136 C262.554666,10.0079994 262.357334,9.92000024 262.144,9.872 C261.930666,9.82399976 261.712001,9.8 261.488,9.8 C261.263999,9.8 261.045334,9.82399976 260.832,9.872 C260.618666,9.92000024 260.421334,10.0079994 260.24,10.136 C260.058666,10.2640006 259.906667,10.4373322 259.784,10.656 C259.661333,10.8746678 259.584,11.1493317 259.552,11.48 C259.541333,11.5653338 259.533333,11.6719994 259.528,11.8 C259.522667,11.9280006 259.52,12.0613326 259.52,12.2 C259.52,12.3386674 259.522667,12.474666 259.528,12.608 C259.533333,12.741334 259.541333,12.845333 259.552,12.92 C259.584,13.2506683 259.661333,13.5253322 259.784,13.744 C259.906667,13.9626678 260.058666,14.1359994 260.24,14.264 C260.421334,14.3920006 260.618666,14.4799998 260.832,14.528 C261.045334,14.5760002 261.263999,14.6 261.488,14.6 C261.712001,14.6 261.930666,14.5760002 262.144,14.528 C262.357334,14.4799998 262.554666,14.3920006 262.736,14.264 C262.917334,14.1359994 263.069333,13.9626678 263.192,13.744 C263.314667,13.5253322 263.392,13.2506683 263.424,12.92 C263.434667,12.845333 263.44,12.741334 263.44,12.608 L263.44,11.8 C263.44,11.6719994 263.434667,11.5653338 263.424,11.48 Z M275.232,13 L276.672,8.424 C276.704,8.33866624 276.749333,8.25333376 276.808,8.168 C276.866667,8.08266624 276.970666,8.04 277.12,8.04 L278.336,8.04 C278.453334,8.04 278.554666,8.08266624 278.64,8.168 C278.725334,8.25333376 278.768,8.35466608 278.768,8.472 C278.768,8.51466688 278.762667,8.55199984 278.752,8.584 L276.336,15.96 C276.304,16.0560005 276.256,16.1466662 276.192,16.232 C276.128,16.3173338 276.021334,16.36 275.872,16.36 L274.656,16.36 C274.506666,16.36 274.402667,16.3173338 274.344,16.232 C274.285333,16.1466662 274.234667,16.0560005 274.192,15.96 L272.64,11.688 L271.088,15.96 C271.045333,16.0560005 270.994667,16.1466662 270.936,16.232 C270.877333,16.3173338 270.773334,16.36 270.624,16.36 L269.408,16.36 C269.258666,16.36 269.152,16.3173338 269.088,16.232 C269.024,16.1466662 268.976,16.0560005 268.944,15.96 L266.528,8.584 C266.517333,8.55199984 266.512,8.51466688 266.512,8.472 C266.512,8.35466608 266.554666,8.25333376 266.64,8.168 C266.725334,8.08266624 266.826666,8.04 266.944,8.04 L268.16,8.04 C268.309334,8.04 268.413333,8.08266624 268.472,8.168 C268.530667,8.25333376 268.576,8.33866624 268.608,8.424 L270.048,13 L271.584,8.424 C271.605333,8.33866624 271.656,8.25333376 271.736,8.168 C271.816,8.08266624 271.914666,8.04 272.032,8.04 L273.248,8.04 C273.365334,8.04 273.464,8.08266624 273.544,8.168 C273.624,8.25333376 273.674667,8.33866624 273.696,8.424 L275.232,13 Z M284.16,5.592 C284.16,5.47466608 284.202666,5.37333376 284.288,5.288 C284.373334,5.20266624 284.474666,5.16 284.592,5.16 L290.608,5.16 C290.725334,5.16 290.826666,5.20266624 290.912,5.288 C290.997334,5.37333376 291.04,5.47466608 291.04,5.592 L291.04,6.728 C291.04,6.84533392 290.997334,6.94666624 290.912,7.032 C290.826666,7.11733376 290.725334,7.16 290.608,7.16 L286.112,7.16 L285.936,9.208 C286.224001,9.09066608 286.509332,9.02133344 286.792,9 C287.074668,8.97866656 287.306666,8.968 287.488,8.968 C288.085336,8.968 288.639997,9.0479992 289.152,9.208 C289.664003,9.3680008 290.106665,9.60533176 290.48,9.92 C290.853335,10.2346682 291.146666,10.621331 291.36,11.08 C291.573334,11.538669 291.68,12.0666637 291.68,12.664 C291.68,13.3466701 291.570668,13.9306642 291.352,14.416 C291.133332,14.9013358 290.834669,15.3013318 290.456,15.616 C290.077331,15.9306682 289.632003,16.1599993 289.12,16.304 C288.607997,16.4480007 288.064003,16.52 287.488,16.52 C286.751996,16.52 286.120003,16.4346675 285.592,16.264 C285.063997,16.0933325 284.626668,15.8613348 284.28,15.568 C283.933332,15.2746652 283.672001,14.9386686 283.496,14.56 C283.319999,14.1813314 283.221333,13.7840021 283.2,13.368 C283.189333,13.2399994 283.229333,13.1360004 283.32,13.056 C283.410667,12.9759996 283.514666,12.936 283.632,12.936 L284.928,12.936 C285.034667,12.936 285.130666,12.9706663 285.216,13.04 C285.301334,13.1093337 285.36,13.2026661 285.392,13.32 C285.456,13.5653346 285.557333,13.7653326 285.696,13.92 C285.834667,14.0746674 285.994666,14.1973329 286.176,14.288 C286.357334,14.3786671 286.559999,14.4399998 286.784,14.472 C287.008001,14.5040002 287.242665,14.52 287.488,14.52 C288.096003,14.52 288.586665,14.3546683 288.96,14.024 C289.333335,13.6933317 289.52,13.2400029 289.52,12.664 C289.52,12.1839976 289.333335,11.7840016 288.96,11.464 C288.586665,11.1439984 288.096003,10.9786667 287.488,10.968 C287.167998,10.968 286.914668,10.9919998 286.728,11.04 C286.541332,11.0880002 286.389334,11.1439997 286.272,11.208 C286.154666,11.2720003 286.048,11.3279998 285.952,11.376 C285.856,11.4240002 285.733334,11.448 285.584,11.448 L284.112,11.448 C283.994666,11.448 283.893334,11.4053338 283.808,11.32 C283.722666,11.2346662 283.68,11.1333339 283.68,11.016 L284.16,5.592 Z M301.856,9.336 C301.866667,9.53866768 301.872,9.76266544 301.872,10.008 L301.872,11.512 C301.872,11.7573346 301.866667,11.9813323 301.856,12.184 C301.824,12.8026698 301.730667,13.3759974 301.576,13.904 C301.421333,14.4320026 301.176002,14.8906647 300.84,15.28 C300.503998,15.6693353 300.066669,15.9733322 299.528,16.192 C298.989331,16.4106678 298.330671,16.52 297.552,16.52 C296.762663,16.52 296.101336,16.4106678 295.568,16.192 C295.034664,15.9733322 294.600002,15.6693353 294.264,15.28 C293.927998,14.8906647 293.682667,14.4320026 293.528,13.904 C293.373333,13.3759974 293.28,12.8026698 293.248,12.184 C293.226667,11.7786646 293.216,11.3173359 293.216,10.8 C293.216,10.2826641 293.226667,9.82133536 293.248,9.416 C293.28,8.79733024 293.373333,8.21866936 293.528,7.68 C293.682667,7.14133064 293.927998,6.67466864 294.264,6.28 C294.600002,5.88533136 295.034664,5.57333448 295.568,5.344 C296.101336,5.11466552 296.762663,5 297.552,5 C298.330671,5 298.989331,5.10933224 299.528,5.328 C300.066669,5.54666776 300.503998,5.85066472 300.84,6.24 C301.176002,6.62933528 301.421333,7.08799736 301.576,7.616 C301.730667,8.14400264 301.824,8.71733024 301.856,9.336 Z M295.408,12.104 C295.461334,12.8720038 295.645332,13.4666646 295.96,13.888 C296.274668,14.3093354 296.80533,14.52 297.552,14.52 C298.29867,14.52 298.829332,14.3093354 299.144,13.888 C299.458668,13.4666646 299.642666,12.8720038 299.696,12.104 C299.717333,11.6986646 299.728,11.2506691 299.728,10.76 C299.728,10.2693309 299.717333,9.82133536 299.696,9.416 C299.642666,8.64799616 299.458668,8.05333544 299.144,7.632 C298.829332,7.21066456 298.29867,7 297.552,7 C296.80533,7 296.274668,7.21066456 295.96,7.632 C295.645332,8.05333544 295.461334,8.64799616 295.408,9.416 C295.386667,9.82133536 295.376,10.2693309 295.376,10.76 C295.376,11.2506691 295.386667,11.6986646 295.408,12.104 Z M305.824,5.08 C306.218669,5.08 306.559999,5.13866608 306.848,5.256 C307.136001,5.37333392 307.378666,5.5253324 307.576,5.712 C307.773334,5.8986676 307.922666,6.1119988 308.024,6.352 C308.125334,6.5920012 308.186667,6.83466544 308.208,7.08 C308.229333,7.35733472 308.24,7.65333176 308.24,7.968 C308.24,8.28266824 308.229333,8.57866528 308.208,8.856 C308.186667,9.10133456 308.125334,9.3439988 308.024,9.584 C307.922666,9.8240012 307.773334,10.0373324 307.576,10.224 C307.378666,10.4106676 307.136001,10.5599994 306.848,10.672 C306.559999,10.7840006 306.218669,10.84 305.824,10.84 C305.429331,10.84 305.088001,10.7840006 304.8,10.672 C304.511999,10.5599994 304.269334,10.4106676 304.072,10.224 C303.874666,10.0373324 303.725334,9.8240012 303.624,9.584 C303.522666,9.3439988 303.461333,9.10133456 303.44,8.856 C303.418667,8.57866528 303.408,8.28266824 303.408,7.968 C303.408,7.65333176 303.418667,7.35733472 303.44,7.08 C303.461333,6.83466544 303.522666,6.5920012 303.624,6.352 C303.725334,6.1119988 303.874666,5.8986676 304.072,5.712 C304.269334,5.5253324 304.511999,5.37333392 304.8,5.256 C305.088001,5.13866608 305.429331,5.08 305.824,5.08 Z M306.672,8.696 C306.682667,8.63199968 306.688,8.53066736 306.688,8.392 L306.688,7.528 C306.688,7.38933264 306.682667,7.28800032 306.672,7.224 C306.650667,7.0106656 306.581334,6.82933408 306.464,6.68 C306.346666,6.53066592 306.133335,6.456 305.824,6.456 C305.514665,6.456 305.301334,6.53066592 305.184,6.68 C305.066666,6.82933408 304.997333,7.0106656 304.976,7.224 C304.965333,7.28800032 304.957333,7.38933264 304.952,7.528 C304.946667,7.66666736 304.944,7.81066592 304.944,7.96 C304.944,8.10933408 304.946667,8.25333264 304.952,8.392 C304.957333,8.53066736 304.965333,8.63199968 304.976,8.696 C304.997333,8.9093344 305.066666,9.09066592 305.184,9.24 C305.301334,9.38933408 305.514665,9.464 305.824,9.464 C306.133335,9.464 306.346666,9.38933408 306.464,9.24 C306.581334,9.09066592 306.650667,8.9093344 306.672,8.696 Z M312.752,10.696 C313.146669,10.696 313.487999,10.7546661 313.776,10.872 C314.064001,10.9893339 314.306666,11.1413324 314.504,11.328 C314.701334,11.5146676 314.850666,11.7279988 314.952,11.968 C315.053334,12.2080012 315.114667,12.4506654 315.136,12.696 C315.157333,12.9733347 315.168,13.2693318 315.168,13.584 C315.168,13.8986682 315.157333,14.1946653 315.136,14.472 C315.114667,14.7173346 315.053334,14.9599988 314.952,15.2 C314.850666,15.4400012 314.701334,15.6533324 314.504,15.84 C314.306666,16.0266676 314.064001,16.1759994 313.776,16.288 C313.487999,16.4000006 313.146669,16.456 312.752,16.456 C312.357331,16.456 312.016001,16.4000006 311.728,16.288 C311.439999,16.1759994 311.197334,16.0266676 311,15.84 C310.802666,15.6533324 310.653334,15.4400012 310.552,15.2 C310.450666,14.9599988 310.389333,14.7173346 310.368,14.472 C310.346667,14.1946653 310.336,13.8986682 310.336,13.584 C310.336,13.2693318 310.346667,12.9733347 310.368,12.696 C310.389333,12.4506654 310.450666,12.2080012 310.552,11.968 C310.653334,11.7279988 310.802666,11.5146676 311,11.328 C311.197334,11.1413324 311.439999,10.9893339 311.728,10.872 C312.016001,10.7546661 312.357331,10.696 312.752,10.696 Z M313.6,14.312 C313.610667,14.2479997 313.616,14.1466674 313.616,14.008 L313.616,13.144 C313.616,13.0053326 313.610667,12.9040003 313.6,12.84 C313.578667,12.6266656 313.509334,12.4453341 313.392,12.296 C313.274666,12.1466659 313.061335,12.072 312.752,12.072 C312.442665,12.072 312.229334,12.1466659 312.112,12.296 C311.994666,12.4453341 311.925333,12.6266656 311.904,12.84 C311.893333,12.9040003 311.885333,13.0053326 311.88,13.144 C311.874667,13.2826674 311.872,13.4266659 311.872,13.576 C311.872,13.7253341 311.874667,13.8693326 311.88,14.008 C311.885333,14.1466674 311.893333,14.2479997 311.904,14.312 C311.925333,14.5253344 311.994666,14.7066659 312.112,14.856 C312.229334,15.0053341 312.442665,15.08 312.752,15.08 C313.061335,15.08 313.274666,15.0053341 313.392,14.856 C313.509334,14.7066659 313.578667,14.5253344 313.6,14.312 Z M312.24,5.464 C312.314667,5.36799952 312.392,5.2933336 312.472,5.24 C312.552,5.1866664 312.666666,5.16 312.816,5.16 L313.776,5.16 C313.893334,5.16 313.986666,5.18933304 314.056,5.248 C314.125334,5.30666696 314.16,5.38399952 314.16,5.48 C314.16,5.50133344 314.154667,5.52799984 314.144,5.56 C314.133333,5.59200016 314.117333,5.62399984 314.096,5.656 L306.192,16.056 C306.117333,16.1520005 306.04,16.2266664 305.96,16.28 C305.88,16.3333336 305.765334,16.36 305.616,16.36 L304.656,16.36 C304.538666,16.36 304.445334,16.330667 304.376,16.272 C304.306666,16.213333 304.272,16.1360005 304.272,16.04 C304.272,16.0186666 304.277333,15.9920002 304.288,15.96 C304.298667,15.9279998 304.314667,15.8960002 304.336,15.864 L312.24,5.464 Z M328.352,15.928 C328.352,16.0453339 328.309334,16.1466662 328.224,16.232 C328.138666,16.3173338 328.037334,16.36 327.92,16.36 L326.704,16.36 C326.586666,16.36 326.485334,16.3173338 326.4,16.232 C326.314666,16.1466662 326.272,16.0453339 326.272,15.928 L326.272,11.864 C326.272,11.2239968 326.122668,10.7120019 325.824,10.328 C325.525332,9.94399808 325.06667,9.752 324.448,9.752 C323.882664,9.752 323.437335,9.94399808 323.112,10.328 C322.786665,10.7120019 322.624,11.2239968 322.624,11.864 L322.624,15.928 C322.624,16.0453339 322.581334,16.1466662 322.496,16.232 C322.410666,16.3173338 322.309334,16.36 322.192,16.36 L320.976,16.36 C320.858666,16.36 320.757334,16.3173338 320.672,16.232 C320.586666,16.1466662 320.544,16.0453339 320.544,15.928 L320.544,5.432 C320.544,5.31466608 320.586666,5.21333376 320.672,5.128 C320.757334,5.04266624 320.858666,5 320.976,5 L322.192,5 C322.309334,5 322.410666,5.04266624 322.496,5.128 C322.581334,5.21333376 322.624,5.31466608 322.624,5.432 L322.624,8.84 C322.901335,8.56266528 323.226665,8.33333424 323.6,8.152 C323.973335,7.97066576 324.415997,7.88 324.928,7.88 C325.57867,7.88 326.122664,7.98133232 326.56,8.184 C326.997336,8.38666768 327.349332,8.65866496 327.616,9 C327.882668,9.34133504 328.071999,9.7386644 328.184,10.192 C328.296001,10.6453356 328.352,11.1226642 328.352,11.624 L328.352,15.928 Z M330.064,12.2 C330.064,11.6026637 330.154666,11.0400026 330.336,10.512 C330.517334,9.98399736 330.778665,9.52533528 331.12,9.136 C331.461335,8.74666472 331.874664,8.44000112 332.36,8.216 C332.845336,7.99199888 333.386664,7.88 333.984,7.88 C334.581336,7.88 335.122664,7.98933224 335.608,8.208 C336.093336,8.42666776 336.506665,8.71999816 336.848,9.088 C337.189335,9.45600184 337.453332,9.88799752 337.64,10.384 C337.826668,10.8800025 337.92,11.3999973 337.92,11.944 L337.92,12.664 C337.92,12.7813339 337.877334,12.8826662 337.792,12.968 C337.706666,13.0533338 337.605334,13.096 337.488,13.096 L332.144,13.096 C332.144,13.3413346 332.194666,13.5573324 332.296,13.744 C332.397334,13.9306676 332.533332,14.0879994 332.704,14.216 C332.874668,14.3440006 333.071999,14.4399997 333.296,14.504 C333.520001,14.5680003 333.749332,14.6 333.984,14.6 C334.325335,14.6 334.602666,14.5653337 334.816,14.496 C335.029334,14.4266663 335.205333,14.3386672 335.344,14.232 C335.461334,14.1466662 335.557333,14.0880002 335.632,14.056 C335.706667,14.0239998 335.807999,14.008 335.936,14.008 L337.216,14.008 C337.333334,14.008 337.437333,14.0506662 337.528,14.136 C337.618667,14.2213338 337.658667,14.3226661 337.648,14.44 C337.637333,14.5893341 337.554667,14.7813322 337.4,15.016 C337.245333,15.2506678 337.013335,15.4799989 336.704,15.704 C336.394665,15.9280011 336.013336,16.1199992 335.56,16.28 C335.106664,16.4400008 334.581336,16.52 333.984,16.52 C333.386664,16.52 332.845336,16.416001 332.36,16.208 C331.874664,15.999999 331.461335,15.7040019 331.12,15.32 C330.778665,14.9359981 330.517334,14.4800026 330.336,13.952 C330.154666,13.4239974 330.064,12.8400032 330.064,12.2 Z M333.984,9.8 C333.674665,9.8 333.410668,9.84533288 333.192,9.936 C332.973332,10.0266671 332.789334,10.1439993 332.64,10.288 C332.490666,10.4320007 332.376,10.5919991 332.296,10.768 C332.216,10.9440009 332.165333,11.1119992 332.144,11.272 L335.76,11.272 C335.738667,11.1119992 335.698667,10.9440009 335.64,10.768 C335.581333,10.5919991 335.485334,10.4320007 335.352,10.288 C335.218666,10.1439993 335.042668,10.0266671 334.824,9.936 C334.605332,9.84533288 334.325335,9.8 333.984,9.8 Z M339.664,10.088 C339.706667,9.86399888 339.805333,9.62400128 339.96,9.368 C340.114667,9.11199872 340.333332,8.87200112 340.616,8.648 C340.898668,8.42399888 341.245331,8.24000072 341.656,8.096 C342.066669,7.95199928 342.543997,7.88 343.088,7.88 C343.632003,7.88 344.122664,7.95199928 344.56,8.096 C344.997336,8.24000072 345.373332,8.45066528 345.688,8.728 C346.002668,9.00533472 346.245332,9.35466456 346.416,9.776 C346.586668,10.1973354 346.672,10.6799973 346.672,11.224 L346.672,15.928 C346.672,16.0453339 346.629334,16.1466662 346.544,16.232 C346.458666,16.3173338 346.357334,16.36 346.24,16.36 L345.024,16.36 C344.906666,16.36 344.805334,16.3173338 344.72,16.232 C344.634666,16.1466662 344.592,16.0453339 344.592,15.928 L344.592,15.4 C344.367999,15.7093349 344.045335,15.9733322 343.624,16.192 C343.202665,16.4106678 342.66667,16.52 342.016,16.52 C341.557331,16.52 341.146668,16.4586673 340.784,16.336 C340.421332,16.2133327 340.117335,16.0400011 339.872,15.816 C339.626665,15.5919989 339.437334,15.3280015 339.304,15.024 C339.170666,14.7199985 339.104,14.3866685 339.104,14.024 C339.104,13.2879963 339.365331,12.7120021 339.888,12.296 C340.410669,11.8799979 341.109329,11.5973341 341.984,11.448 L344.592,11 C344.592,10.5626645 344.448001,10.2533342 344.16,10.072 C343.871999,9.89066576 343.514669,9.8 343.088,9.8 C342.821332,9.8 342.613334,9.83733296 342.464,9.912 C342.314666,9.98666704 342.170667,10.0879994 342.032,10.216 C341.936,10.3013338 341.848,10.3599998 341.768,10.392 C341.688,10.4240002 341.6,10.44 341.504,10.44 L340.016,10.44 C339.909333,10.44 339.818667,10.4080003 339.744,10.344 C339.669333,10.2799997 339.642667,10.1946672 339.664,10.088 Z M342.336,14.6 C342.698668,14.6 343.021332,14.5493338 343.304,14.448 C343.586668,14.3466662 343.823999,14.2106675 344.016,14.04 C344.208001,13.8693325 344.352,13.6773344 344.448,13.464 C344.544,13.2506656 344.592,13.0320011 344.592,12.808 L344.592,12.648 L342.416,13.032 C341.978664,13.106667 341.664001,13.2159993 341.472,13.36 C341.279999,13.5040007 341.184,13.6986654 341.184,13.944 C341.184,14.1680011 341.298666,14.3333328 341.528,14.44 C341.757334,14.5466672 342.026665,14.6 342.336,14.6 Z M350.88,15.928 C350.88,16.0453339 350.837334,16.1466662 350.752,16.232 C350.666666,16.3173338 350.565334,16.36 350.448,16.36 L349.232,16.36 C349.114666,16.36 349.013334,16.3173338 348.928,16.232 C348.842666,16.1466662 348.8,16.0453339 348.8,15.928 L348.8,5.432 C348.8,5.31466608 348.842666,5.21333376 348.928,5.128 C349.013334,5.04266624 349.114666,5 349.232,5 L350.448,5 C350.565334,5 350.666666,5.04266624 350.752,5.128 C350.837334,5.21333376 350.88,5.31466608 350.88,5.432 L350.88,15.928 Z M355.888,13.352 C355.888,13.6826683 355.975999,13.9466657 356.152,14.144 C356.328001,14.3413343 356.655998,14.44 357.136,14.44 L358.112,14.44 C358.229334,14.44 358.330666,14.4826662 358.416,14.568 C358.501334,14.6533338 358.544,14.7546661 358.544,14.872 L358.544,15.928 C358.544,16.0453339 358.501334,16.1466662 358.416,16.232 C358.330666,16.3173338 358.229334,16.36 358.112,16.36 L356.928,16.36 C355.925328,16.36 355.154669,16.1173358 354.616,15.632 C354.077331,15.1466642 353.808,14.4026717 353.808,13.4 L353.808,9.96 L352.752,9.96 C352.634666,9.96 352.533334,9.91733376 352.448,9.832 C352.362666,9.74666624 352.32,9.64533392 352.32,9.528 L352.32,8.472 C352.32,8.35466608 352.362666,8.25333376 352.448,8.168 C352.533334,8.08266624 352.634666,8.04 352.752,8.04 L353.808,8.04 L353.808,5.432 C353.808,5.31466608 353.850666,5.21333376 353.936,5.128 C354.021334,5.04266624 354.122666,5 354.24,5 L355.456,5 C355.573334,5 355.674666,5.04266624 355.76,5.128 C355.845334,5.21333376 355.888,5.31466608 355.888,5.432 L355.888,8.04 L357.952,8.04 C358.069334,8.04 358.170666,8.08266624 358.256,8.168 C358.341334,8.25333376 358.384,8.35466608 358.384,8.472 L358.384,9.528 C358.384,9.64533392 358.341334,9.74666624 358.256,9.832 C358.170666,9.91733376 358.069334,9.96 357.952,9.96 L355.888,9.96 L355.888,13.352 Z M367.92,15.928 C367.92,16.0453339 367.877334,16.1466662 367.792,16.232 C367.706666,16.3173338 367.605334,16.36 367.488,16.36 L366.272,16.36 C366.154666,16.36 366.053334,16.3173338 365.968,16.232 C365.882666,16.1466662 365.84,16.0453339 365.84,15.928 L365.84,11.864 C365.84,11.2239968 365.690668,10.7120019 365.392,10.328 C365.093332,9.94399808 364.63467,9.752 364.016,9.752 C363.450664,9.752 363.005335,9.94399808 362.68,10.328 C362.354665,10.7120019 362.192,11.2239968 362.192,11.864 L362.192,15.928 C362.192,16.0453339 362.149334,16.1466662 362.064,16.232 C361.978666,16.3173338 361.877334,16.36 361.76,16.36 L360.544,16.36 C360.426666,16.36 360.325334,16.3173338 360.24,16.232 C360.154666,16.1466662 360.112,16.0453339 360.112,15.928 L360.112,5.432 C360.112,5.31466608 360.154666,5.21333376 360.24,5.128 C360.325334,5.04266624 360.426666,5 360.544,5 L361.76,5 C361.877334,5 361.978666,5.04266624 362.064,5.128 C362.149334,5.21333376 362.192,5.31466608 362.192,5.432 L362.192,8.84 C362.469335,8.56266528 362.794665,8.33333424 363.168,8.152 C363.541335,7.97066576 363.983997,7.88 364.496,7.88 C365.14667,7.88 365.690664,7.98133232 366.128,8.184 C366.565336,8.38666768 366.917332,8.65866496 367.184,9 C367.450668,9.34133504 367.639999,9.7386644 367.752,10.192 C367.864001,10.6453356 367.92,11.1226642 367.92,11.624 L367.92,15.928 Z" id="Lovelace,-Inc-droppe" fill="#22284A"></path>
                            <path d="M65.682,28 C66.2513362,28 66.7529978,28.0886658 67.187,28.266 C67.6210022,28.4433342 67.9896652,28.6603321 68.293,28.917 C68.5963349,29.173668 68.8273325,29.4489985 68.986,29.743 C69.1446675,30.0370015 69.2286666,30.3006655 69.238,30.534 C69.2473334,30.6180004 69.2193337,30.690333 69.154,30.751 C69.0886663,30.811667 69.0140004,30.842 68.93,30.842 L68.356,30.842 C68.2533328,30.842 68.171667,30.8233335 68.111,30.786 C68.050333,30.7486665 67.9873337,30.6646673 67.922,30.534 C67.8753331,30.4406662 67.7983339,30.3216674 67.691,30.177 C67.5836661,30.0323326 67.4390009,29.892334 67.257,29.757 C67.0749991,29.621666 66.8533346,29.5050005 66.592,29.407 C66.3306654,29.3089995 66.0273351,29.26 65.682,29.26 C65.4206654,29.26 65.1710012,29.290333 64.933,29.351 C64.6949988,29.411667 64.4826676,29.5026661 64.296,29.624 C64.1093324,29.7453339 63.9600006,29.8969991 63.848,30.079 C63.7359994,30.2610009 63.68,30.4733321 63.68,30.716 C63.68,30.9586679 63.7336661,31.1639992 63.841,31.332 C63.9483339,31.5000008 64.1209988,31.651666 64.359,31.787 C64.5970012,31.922334 64.8979982,32.0459994 65.262,32.158 C65.6260018,32.2700006 66.0693307,32.3959993 66.592,32.536 C67.1240027,32.6760007 67.5743315,32.8299992 67.943,32.998 C68.3116685,33.1660008 68.6126655,33.3549989 68.846,33.565 C69.0793345,33.7750011 69.2496661,34.0176653 69.357,34.293 C69.4643339,34.5683347 69.518,34.8786649 69.518,35.224 C69.518,35.6440021 69.4270009,36.0289983 69.245,36.379 C69.0629991,36.7290017 68.8086683,37.0299987 68.482,37.282 C68.1553317,37.5340013 67.7610023,37.7299993 67.299,37.87 C66.8369977,38.0100007 66.3213362,38.08 65.752,38.08 C65.210664,38.08 64.7113356,38.0006675 64.254,37.842 C63.7966644,37.6833325 63.4046683,37.4780013 63.078,37.226 C62.7513317,36.9739987 62.4923343,36.6940015 62.301,36.386 C62.1096657,36.0779985 62.0093334,35.7746682 62,35.476 C62,35.3919996 62.030333,35.319667 62.091,35.259 C62.151667,35.198333 62.2239996,35.168 62.308,35.168 L62.882,35.168 C62.9753338,35.168 63.0569997,35.1866665 63.127,35.224 C63.1970004,35.2613335 63.2599997,35.3453327 63.316,35.476 C63.3720003,35.6066673 63.4583328,35.7489992 63.575,35.903 C63.6916673,36.0570008 63.847999,36.201666 64.044,36.337 C64.240001,36.472334 64.4779986,36.5866662 64.758,36.68 C65.0380014,36.7733338 65.3693314,36.82 65.752,36.82 C66.0786683,36.82 66.3889985,36.782667 66.683,36.708 C66.9770015,36.633333 67.2359989,36.5260007 67.46,36.386 C67.6840011,36.2459993 67.8613327,36.078001 67.992,35.882 C68.1226673,35.685999 68.188,35.4666679 68.188,35.224 C68.188,34.9813321 68.1133341,34.7736675 67.964,34.601 C67.8146659,34.4283325 67.6000014,34.2720007 67.32,34.132 C67.0399986,33.9919993 66.697002,33.8636672 66.291,33.747 C65.884998,33.6303328 65.4253359,33.5066673 64.912,33.376 C64.445331,33.2546661 64.0486683,33.1076675 63.722,32.935 C63.3953317,32.7623325 63.1293344,32.5640011 62.924,32.34 C62.7186656,32.1159989 62.5716671,31.868668 62.483,31.598 C62.3943329,31.327332 62.35,31.0333349 62.35,30.716 C62.35,30.3706649 62.4199993,30.0346683 62.56,29.708 C62.7000007,29.3813317 62.9076653,29.0920013 63.183,28.84 C63.4583347,28.5879987 63.8036646,28.3850008 64.219,28.231 C64.6343354,28.0769992 65.1219972,28 65.682,28 Z M73.074,35.49 C73.074,35.6673342 73.0903332,35.8329992 73.123,35.987 C73.1556668,36.1410008 73.2139996,36.2739994 73.298,36.386 C73.3820004,36.4980006 73.5009992,36.584333 73.655,36.645 C73.8090008,36.705667 74.0073321,36.736 74.25,36.736 L74.992,36.736 C75.0946672,36.736 75.183333,36.773333 75.258,36.848 C75.332667,36.922667 75.37,37.0113328 75.37,37.114 L75.37,37.562 C75.37,37.6646672 75.332667,37.753333 75.258,37.828 C75.183333,37.902667 75.0946672,37.94 74.992,37.94 L74.11,37.94 C73.2979959,37.94 72.7100018,37.7300021 72.346,37.31 C71.9819982,36.8899979 71.8,36.2833373 71.8,35.49 L71.8,31.864 L70.764,31.864 C70.6613328,31.864 70.572667,31.826667 70.498,31.752 C70.423333,31.677333 70.386,31.5886672 70.386,31.486 L70.386,31.038 C70.386,30.9353328 70.423333,30.846667 70.498,30.772 C70.572667,30.697333 70.6613328,30.66 70.764,30.66 L71.8,30.66 L71.8,28.378 C71.8,28.2753328 71.837333,28.186667 71.912,28.112 C71.986667,28.037333 72.0753328,28 72.178,28 L72.696,28 C72.7986672,28 72.887333,28.037333 72.962,28.112 C73.036667,28.186667 73.074,28.2753328 73.074,28.378 L73.074,30.66 L74.852,30.66 C74.9546672,30.66 75.043333,30.697333 75.118,30.772 C75.192667,30.846667 75.23,30.9353328 75.23,31.038 L75.23,31.486 C75.23,31.5886672 75.192667,31.677333 75.118,31.752 C75.043333,31.826667 74.9546672,31.864 74.852,31.864 L73.074,31.864 L73.074,35.49 Z M76.252,36.106 C76.252,35.7326648 76.3266659,35.4060014 76.476,35.126 C76.6253341,34.8459986 76.8306654,34.608001 77.092,34.412 C77.3533346,34.215999 77.6589983,34.0573339 78.009,33.936 C78.3590018,33.8146661 78.729998,33.7213337 79.122,33.656 L81.096,33.334 L81.096,33.152 C81.096,32.6759976 80.9396682,32.3190012 80.627,32.081 C80.3143318,31.8429988 79.924669,31.724 79.458,31.724 C79.0473313,31.724 78.7370011,31.7986659 78.527,31.948 C78.316999,32.0973341 78.1373341,32.2746656 77.988,32.48 C77.9319997,32.554667 77.8713337,32.6059999 77.806,32.634 C77.7406663,32.6620001 77.6520006,32.676 77.54,32.676 L77.12,32.676 C77.0173328,32.676 76.9263337,32.638667 76.847,32.564 C76.7676663,32.489333 76.7326666,32.4006672 76.742,32.298 C76.7606668,32.0926656 76.8423326,31.8826677 76.987,31.668 C77.1316674,31.4533323 77.3276654,31.2620008 77.575,31.094 C77.8223346,30.9259992 78.1069984,30.7883339 78.429,30.681 C78.7510016,30.5736661 79.0939982,30.52 79.458,30.52 C79.8780021,30.52 80.2676649,30.5806661 80.627,30.702 C80.9863351,30.8233339 81.2943321,31.0006655 81.551,31.234 C81.807668,31.4673345 82.0083326,31.7566649 82.153,32.102 C82.2976674,32.4473351 82.37,32.8439978 82.37,33.292 L82.37,37.562 C82.37,37.6646672 82.332667,37.753333 82.258,37.828 C82.183333,37.902667 82.0946672,37.94 81.992,37.94 L81.474,37.94 C81.3713328,37.94 81.282667,37.902667 81.208,37.828 C81.133333,37.753333 81.096,37.6646672 81.096,37.562 L81.096,36.988 C81.0119996,37.1653342 80.8813342,37.321666 80.704,37.457 C80.5266658,37.592334 80.3236678,37.7066662 80.095,37.8 C79.8663322,37.8933338 79.6283346,37.9633331 79.381,38.01 C79.1336654,38.0566669 78.9026677,38.08 78.688,38.08 C78.3239982,38.08 77.9903349,38.0286672 77.687,37.926 C77.3836652,37.8233328 77.1270011,37.6856675 76.917,37.513 C76.706999,37.3403325 76.5436673,37.1326679 76.427,36.89 C76.3103328,36.6473321 76.252,36.3860014 76.252,36.106 Z M78.828,36.876 C79.1640017,36.876 79.4719986,36.8246672 79.752,36.722 C80.0320014,36.6193328 80.2723323,36.4770009 80.473,36.295 C80.6736677,36.1129991 80.8276661,35.8960013 80.935,35.644 C81.0423339,35.3919987 81.096,35.1120015 81.096,34.804 L81.096,34.454 L79.444,34.72 C78.8559971,34.8133338 78.3893351,34.9626656 78.044,35.168 C77.6986649,35.3733344 77.526,35.6393317 77.526,35.966 C77.526,36.0686672 77.5493331,36.1713328 77.596,36.274 C77.6426669,36.3766672 77.7173328,36.4746662 77.82,36.568 C77.9226672,36.6613338 78.0556659,36.7359997 78.219,36.792 C78.3823342,36.8480003 78.5853321,36.876 78.828,36.876 Z M88.11,30.66 C88.2126672,30.66 88.301333,30.697333 88.376,30.772 C88.450667,30.846667 88.488,30.9353328 88.488,31.038 L88.488,31.486 C88.488,31.5886672 88.450667,31.677333 88.376,31.752 C88.301333,31.826667 88.2126672,31.864 88.11,31.864 L87.298,31.864 C86.2246613,31.864 85.688,32.4006613 85.688,33.474 L85.688,37.562 C85.688,37.6646672 85.650667,37.753333 85.576,37.828 C85.501333,37.902667 85.4126672,37.94 85.31,37.94 L84.792,37.94 C84.6893328,37.94 84.600667,37.902667 84.526,37.828 C84.451333,37.753333 84.414,37.6646672 84.414,37.562 L84.414,31.038 C84.414,30.9353328 84.451333,30.846667 84.526,30.772 C84.600667,30.697333 84.6893328,30.66 84.792,30.66 L85.31,30.66 C85.4126672,30.66 85.501333,30.697333 85.576,30.772 C85.650667,30.846667 85.688,30.9353328 85.688,31.038 L85.688,31.472 C85.8746676,31.1919986 86.0986654,30.9866673 86.36,30.856 C86.6213346,30.7253327 86.9619979,30.66 87.382,30.66 L88.11,30.66 Z M91.61,35.49 C91.61,35.6673342 91.6263332,35.8329992 91.659,35.987 C91.6916668,36.1410008 91.7499996,36.2739994 91.834,36.386 C91.9180004,36.4980006 92.0369992,36.584333 92.191,36.645 C92.3450008,36.705667 92.5433321,36.736 92.786,36.736 L93.528,36.736 C93.6306672,36.736 93.719333,36.773333 93.794,36.848 C93.868667,36.922667 93.906,37.0113328 93.906,37.114 L93.906,37.562 C93.906,37.6646672 93.868667,37.753333 93.794,37.828 C93.719333,37.902667 93.6306672,37.94 93.528,37.94 L92.646,37.94 C91.8339959,37.94 91.2460018,37.7300021 90.882,37.31 C90.5179982,36.8899979 90.336,36.2833373 90.336,35.49 L90.336,31.864 L89.3,31.864 C89.1973328,31.864 89.108667,31.826667 89.034,31.752 C88.959333,31.677333 88.922,31.5886672 88.922,31.486 L88.922,31.038 C88.922,30.9353328 88.959333,30.846667 89.034,30.772 C89.108667,30.697333 89.1973328,30.66 89.3,30.66 L90.336,30.66 L90.336,28.378 C90.336,28.2753328 90.373333,28.186667 90.448,28.112 C90.522667,28.037333 90.6113328,28 90.714,28 L91.232,28 C91.3346672,28 91.423333,28.037333 91.498,28.112 C91.572667,28.186667 91.61,28.2753328 91.61,28.378 L91.61,30.66 L93.388,30.66 C93.4906672,30.66 93.579333,30.697333 93.654,30.772 C93.728667,30.846667 93.766,30.9353328 93.766,31.038 L93.766,31.486 C93.766,31.5886672 93.728667,31.677333 93.654,31.752 C93.579333,31.826667 93.4906672,31.864 93.388,31.864 L91.61,31.864 L91.61,35.49 Z M94.97,33.6 C95.0073335,33.1706645 95.1099992,32.7693352 95.278,32.396 C95.4460008,32.0226648 95.665332,31.6960014 95.936,31.416 C96.206668,31.1359986 96.5309981,30.9166675 96.909,30.758 C97.2870019,30.5993325 97.709331,30.52 98.176,30.52 C98.6800025,30.52 99.1303314,30.6016658 99.527,30.765 C99.9236687,30.9283341 100.261999,31.1639985 100.542,31.472 C100.822001,31.7800015 101.036666,32.1533311 101.186,32.592 C101.335334,33.0306689 101.41,33.520664 101.41,34.062 L101.41,34.44 C101.41,34.5426672 101.372667,34.631333 101.298,34.706 C101.223333,34.780667 101.134667,34.818 101.032,34.818 L96.216,34.818 L96.216,34.902 C96.2346668,35.5366698 96.4283315,36.0243316 96.797,36.365 C97.1656685,36.7056684 97.6253306,36.876 98.176,36.876 C98.6893359,36.876 99.0743321,36.8036674 99.331,36.659 C99.587668,36.5143326 99.7953325,36.3533342 99.954,36.176 C100.028667,36.101333 100.094,36.0500001 100.15,36.022 C100.206,35.9939999 100.289999,35.98 100.402,35.98 L100.822,35.98 C100.924667,35.98 101.018,36.017333 101.102,36.092 C101.186,36.166667 101.218667,36.2553328 101.2,36.358 C101.172,36.5260008 101.092667,36.7103323 100.962,36.911 C100.831333,37.1116677 100.642335,37.2983325 100.395,37.471 C100.147665,37.6436675 99.8396685,37.7883327 99.471,37.905 C99.1023315,38.0216672 98.6706691,38.08 98.176,38.08 C97.709331,38.08 97.2893352,37.9983341 96.916,37.835 C96.5426648,37.6716658 96.2183347,37.4476681 95.943,37.163 C95.6676653,36.8783319 95.4460008,36.5423353 95.278,36.155 C95.1099992,35.7676647 95.0073335,35.3453356 94.97,34.888 C94.9233331,34.4586645 94.9233331,34.0293355 94.97,33.6 Z M96.216,33.642 L100.15,33.642 L100.15,33.6 C100.15,33.0306638 99.9703351,32.5756684 99.611,32.235 C99.2516649,31.8943316 98.7733363,31.724 98.176,31.724 C97.905332,31.724 97.6533345,31.7683329 97.42,31.857 C97.1866655,31.9456671 96.9813342,32.0716658 96.804,32.235 C96.6266658,32.3983341 96.4866672,32.5966655 96.384,32.83 C96.2813328,33.0633345 96.2253334,33.3199986 96.216,33.6 L96.216,33.642 Z M105.932,30.52 C106.51067,30.52 106.972665,30.6203323 107.318,30.821 C107.663335,31.0216677 107.924666,31.2386655 108.102,31.472 L108.102,28.378 C108.102,28.2753328 108.139333,28.186667 108.214,28.112 C108.288667,28.037333 108.377333,28 108.48,28 L108.998,28 C109.100667,28 109.189333,28.037333 109.264,28.112 C109.338667,28.186667 109.376,28.2753328 109.376,28.378 L109.376,37.562 C109.376,37.6646672 109.338667,37.753333 109.264,37.828 C109.189333,37.902667 109.100667,37.94 108.998,37.94 L108.48,37.94 C108.377333,37.94 108.288667,37.902667 108.214,37.828 C108.139333,37.753333 108.102,37.6646672 108.102,37.562 L108.102,37.128 C107.915332,37.3800013 107.649335,37.6016657 107.304,37.793 C106.958665,37.9843343 106.501336,38.08 105.932,38.08 C105.493331,38.08 105.085002,38.0030008 104.707,37.849 C104.328998,37.6949992 104.000001,37.4733348 103.72,37.184 C103.439999,36.8946652 103.216001,36.5446687 103.048,36.134 C102.879999,35.7233313 102.782,35.2613359 102.754,34.748 C102.744667,34.6079993 102.74,34.4563341 102.74,34.293 C102.74,34.1296658 102.744667,33.9780007 102.754,33.838 C102.782,33.3246641 102.879999,32.8626687 103.048,32.452 C103.216001,32.0413313 103.439999,31.6936681 103.72,31.409 C104.000001,31.1243319 104.328998,30.9050008 104.707,30.751 C105.085002,30.5969992 105.493331,30.52 105.932,30.52 Z M108.102,34.902 C108.111333,34.7619993 108.116,34.5776678 108.116,34.349 C108.116,34.1203322 108.111333,33.9360007 108.102,33.796 C108.074,33.13333 107.875669,32.6223351 107.507,32.263 C107.138331,31.9036649 106.660003,31.724 106.072,31.724 C105.455997,31.724 104.970668,31.919998 104.616,32.312 C104.261332,32.704002 104.065334,33.2359966 104.028,33.908 C104.018667,34.1693346 104.018667,34.4306654 104.028,34.692 C104.065334,35.3640034 104.261332,35.895998 104.616,36.288 C104.970668,36.680002 105.455997,36.876 106.072,36.876 C106.65067,36.876 107.126665,36.6986684 107.5,36.344 C107.873335,35.9893316 108.074,35.5086697 108.102,34.902 Z M119.4,37.94 C119.297333,37.94 119.208667,37.902667 119.134,37.828 C119.059333,37.753333 119.022,37.6646672 119.022,37.562 L119.022,35.63 L114.626,35.63 C114.523333,35.63 114.434667,35.592667 114.36,35.518 C114.285333,35.443333 114.248,35.3546672 114.248,35.252 L114.248,34.748 C114.248,34.6826663 114.264333,34.6056671 114.297,34.517 C114.329667,34.4283329 114.378666,34.346667 114.444,34.272 L118.868,28.476 C118.942667,28.3733328 119.024333,28.291667 119.113,28.231 C119.201667,28.170333 119.301999,28.14 119.414,28.14 L119.974,28.14 C120.076667,28.14 120.165333,28.177333 120.24,28.252 C120.314667,28.326667 120.352,28.4153328 120.352,28.518 L120.352,34.37 L121.556,34.37 C121.658667,34.37 121.747333,34.407333 121.822,34.482 C121.896667,34.556667 121.934,34.6453328 121.934,34.748 L121.934,35.252 C121.934,35.3546672 121.896667,35.443333 121.822,35.518 C121.747333,35.592667 121.658667,35.63 121.556,35.63 L120.352,35.63 L120.352,37.562 C120.352,37.6646672 120.314667,37.753333 120.24,37.828 C120.165333,37.902667 120.076667,37.94 119.974,37.94 L119.4,37.94 Z M119.022,34.37 L119.022,30.422 L115.984,34.37 L119.022,34.37 Z M133.316,37.562 C133.316,37.6646672 133.278667,37.753333 133.204,37.828 C133.129333,37.902667 133.040667,37.94 132.938,37.94 L132.42,37.94 C132.317333,37.94 132.228667,37.902667 132.154,37.828 C132.079333,37.753333 132.042,37.6646672 132.042,37.562 L132.042,33.866 C132.042,33.1473297 131.869335,32.6106684 131.524,32.256 C131.178665,31.9013316 130.698003,31.724 130.082,31.724 C129.493997,31.724 129.020335,31.9013316 128.661,32.256 C128.301665,32.6106684 128.122,33.1473297 128.122,33.866 L128.122,37.562 C128.122,37.6646672 128.084667,37.753333 128.01,37.828 C127.935333,37.902667 127.846667,37.94 127.744,37.94 L127.226,37.94 C127.123333,37.94 127.034667,37.902667 126.96,37.828 C126.885333,37.753333 126.848,37.6646672 126.848,37.562 L126.848,28.378 C126.848,28.2753328 126.885333,28.186667 126.96,28.112 C127.034667,28.037333 127.123333,28 127.226,28 L127.744,28 C127.846667,28 127.935333,28.037333 128.01,28.112 C128.084667,28.186667 128.122,28.2753328 128.122,28.378 L128.122,31.472 C128.299334,31.2386655 128.562998,31.0216677 128.913,30.821 C129.263002,30.6203323 129.722664,30.52 130.292,30.52 C130.730669,30.52 131.136665,30.5923326 131.51,30.737 C131.883335,30.8816674 132.202999,31.0869987 132.469,31.353 C132.735001,31.6190013 132.942666,31.947998 133.092,32.34 C133.241334,32.732002 133.316,33.1706642 133.316,33.656 L133.316,37.562 Z M138.328,30.52 C138.832003,30.52 139.279998,30.5969992 139.672,30.751 C140.064002,30.9050008 140.399999,31.117332 140.68,31.388 C140.960001,31.658668 141.181666,31.9876647 141.345,32.375 C141.508334,32.7623353 141.608666,33.1846644 141.646,33.642 C141.655333,33.7260004 141.66,33.8263327 141.66,33.943 L141.66,34.671 C141.66,34.7876672 141.655333,34.883333 141.646,34.958 C141.599333,35.424669 141.496667,35.8493314 141.338,36.232 C141.179333,36.6146686 140.960001,36.941332 140.68,37.212 C140.399999,37.482668 140.064002,37.6949992 139.672,37.849 C139.279998,38.0030008 138.832003,38.08 138.328,38.08 C137.823997,38.08 137.376002,38.0030008 136.984,37.849 C136.591998,37.6949992 136.256001,37.482668 135.976,37.212 C135.695999,36.941332 135.474334,36.6146686 135.311,36.232 C135.147666,35.8493314 135.047334,35.424669 135.01,34.958 C135.000667,34.883333 134.993667,34.7876672 134.989,34.671 C134.984333,34.5543328 134.982,34.4330006 134.982,34.307 C134.982,34.1809994 134.984333,34.0596672 134.989,33.943 C134.993667,33.8263327 135.000667,33.7260004 135.01,33.642 C135.047334,33.1846644 135.147666,32.7623353 135.311,32.375 C135.474334,31.9876647 135.695999,31.658668 135.976,31.388 C136.256001,31.117332 136.591998,30.9050008 136.984,30.751 C137.376002,30.5969992 137.823997,30.52 138.328,30.52 Z M140.372,34.888 C140.390667,34.7293325 140.4,34.5356678 140.4,34.307 C140.4,34.0783322 140.390667,33.8800008 140.372,33.712 C140.344,33.4319986 140.283334,33.1706679 140.19,32.928 C140.096666,32.6853321 139.966001,32.4753342 139.798,32.298 C139.629999,32.1206658 139.424668,31.9806672 139.182,31.878 C138.939332,31.7753328 138.654668,31.724 138.328,31.724 C138.001332,31.724 137.716668,31.7753328 137.474,31.878 C137.231332,31.9806672 137.026001,32.1206658 136.858,32.298 C136.689999,32.4753342 136.559334,32.6853321 136.466,32.928 C136.372666,33.1706679 136.312,33.4319986 136.284,33.712 C136.265333,33.8800008 136.256,34.0783322 136.256,34.307 C136.256,34.5356678 136.265333,34.7293325 136.284,34.888 C136.312,35.1680014 136.372666,35.4293321 136.466,35.672 C136.559334,35.9146679 136.689999,36.1246658 136.858,36.302 C137.026001,36.4793342 137.231332,36.6193328 137.474,36.722 C137.716668,36.8246672 138.001332,36.876 138.328,36.876 C138.654668,36.876 138.939332,36.8246672 139.182,36.722 C139.424668,36.6193328 139.629999,36.4793342 139.798,36.302 C139.966001,36.1246658 140.096666,35.9146679 140.19,35.672 C140.283334,35.4293321 140.344,35.1680014 140.372,34.888 Z M143.354,31.038 C143.354,30.9353328 143.391333,30.846667 143.466,30.772 C143.540667,30.697333 143.629333,30.66 143.732,30.66 L144.25,30.66 C144.352667,30.66 144.441333,30.697333 144.516,30.772 C144.590667,30.846667 144.628,30.9353328 144.628,31.038 L144.628,34.734 C144.628,35.4526703 144.788998,35.9893316 145.111,36.344 C145.433002,36.6986684 145.901997,36.876 146.518,36.876 C147.106003,36.876 147.567998,36.6986684 147.904,36.344 C148.240002,35.9893316 148.408,35.4526703 148.408,34.734 L148.408,31.038 C148.408,30.9353328 148.445333,30.846667 148.52,30.772 C148.594667,30.697333 148.683333,30.66 148.786,30.66 L149.304,30.66 C149.406667,30.66 149.495333,30.697333 149.57,30.772 C149.644667,30.846667 149.682,30.9353328 149.682,31.038 L149.682,37.562 C149.682,37.6646672 149.644667,37.753333 149.57,37.828 C149.495333,37.902667 149.406667,37.94 149.304,37.94 L148.786,37.94 C148.683333,37.94 148.594667,37.902667 148.52,37.828 C148.445333,37.753333 148.408,37.6646672 148.408,37.562 L148.408,37.128 C148.230666,37.3613345 147.978668,37.5783323 147.652,37.779 C147.325332,37.9796677 146.877336,38.08 146.308,38.08 C145.869331,38.08 145.468002,38.0076674 145.104,37.863 C144.739998,37.7183326 144.427335,37.5130013 144.166,37.247 C143.904665,36.9809987 143.704001,36.6543353 143.564,36.267 C143.423999,35.8796647 143.354,35.4386691 143.354,34.944 L143.354,31.038 Z M155.478,30.66 C155.580667,30.66 155.669333,30.697333 155.744,30.772 C155.818667,30.846667 155.856,30.9353328 155.856,31.038 L155.856,31.486 C155.856,31.5886672 155.818667,31.677333 155.744,31.752 C155.669333,31.826667 155.580667,31.864 155.478,31.864 L154.666,31.864 C153.592661,31.864 153.056,32.4006613 153.056,33.474 L153.056,37.562 C153.056,37.6646672 153.018667,37.753333 152.944,37.828 C152.869333,37.902667 152.780667,37.94 152.678,37.94 L152.16,37.94 C152.057333,37.94 151.968667,37.902667 151.894,37.828 C151.819333,37.753333 151.782,37.6646672 151.782,37.562 L151.782,31.038 C151.782,30.9353328 151.819333,30.846667 151.894,30.772 C151.968667,30.697333 152.057333,30.66 152.16,30.66 L152.678,30.66 C152.780667,30.66 152.869333,30.697333 152.944,30.772 C153.018667,30.846667 153.056,30.9353328 153.056,31.038 L153.056,31.472 C153.242668,31.1919986 153.466665,30.9866673 153.728,30.856 C153.989335,30.7253327 154.329998,30.66 154.75,30.66 L155.478,30.66 Z M161.218,35.924 C161.218,35.7466658 161.169,35.5996672 161.071,35.483 C160.973,35.3663327 160.826001,35.2660004 160.63,35.182 C160.433999,35.0979996 160.184335,35.018667 159.881,34.944 C159.577665,34.869333 159.225335,34.7900004 158.824,34.706 C158.067996,34.5473325 157.538335,34.2836685 157.235,33.915 C156.931665,33.5463315 156.78,33.1146691 156.78,32.62 C156.78,32.3399986 156.835999,32.0740013 156.948,31.822 C157.060001,31.5699987 157.227999,31.346001 157.452,31.15 C157.676001,30.953999 157.958332,30.8000006 158.299,30.688 C158.639668,30.5759994 159.038664,30.52 159.496,30.52 C159.953336,30.52 160.352332,30.5713328 160.693,30.674 C161.033668,30.7766672 161.320666,30.9073325 161.554,31.066 C161.787335,31.2246675 161.964666,31.3949991 162.086,31.577 C162.207334,31.7590009 162.272667,31.9339992 162.282,32.102 C162.291333,32.2046672 162.256334,32.293333 162.177,32.368 C162.097666,32.442667 162.006667,32.48 161.904,32.48 L161.442,32.48 C161.386,32.48 161.318334,32.4683334 161.239,32.445 C161.159666,32.4216665 161.087334,32.3680004 161.022,32.284 C160.900666,32.1253325 160.721001,31.9923339 160.483,31.885 C160.244999,31.7776661 159.916002,31.724 159.496,31.724 C159.066665,31.724 158.719001,31.8033325 158.453,31.962 C158.186999,32.1206675 158.054,32.3399986 158.054,32.62 C158.054,32.7973342 158.091333,32.9396661 158.166,33.047 C158.240667,33.1543339 158.361999,33.2476663 158.53,33.327 C158.698001,33.4063337 158.919665,33.4786663 159.195,33.544 C159.470335,33.6093337 159.813331,33.6886662 160.224,33.782 C160.653335,33.8753338 161.012665,33.9943326 161.302,34.139 C161.591335,34.2836674 161.824666,34.4469991 162.002,34.629 C162.179334,34.8110009 162.305333,35.0116656 162.38,35.231 C162.454667,35.4503344 162.492,35.6813321 162.492,35.924 C162.492,36.2040014 162.424334,36.4746654 162.289,36.736 C162.153666,36.9973346 161.960001,37.225999 161.708,37.422 C161.455999,37.618001 161.150335,37.7766661 160.791,37.898 C160.431665,38.0193339 160.023336,38.08 159.566,38.08 C159.108664,38.08 158.702668,38.0240006 158.348,37.912 C157.993332,37.7999994 157.690001,37.6623341 157.438,37.499 C157.185999,37.3356658 156.992334,37.1583343 156.857,36.967 C156.721666,36.7756657 156.649333,36.5960008 156.64,36.428 C156.630667,36.3253328 156.663333,36.236667 156.738,36.162 C156.812667,36.087333 156.905999,36.05 157.018,36.05 L157.522,36.05 C157.578,36.05 157.643333,36.0569999 157.718,36.071 C157.792667,36.0850001 157.862666,36.1386662 157.928,36.232 C158.077334,36.4373344 158.282665,36.5959994 158.544,36.708 C158.805335,36.8200006 159.145998,36.876 159.566,36.876 C159.771334,36.876 159.974332,36.8526669 160.175,36.806 C160.375668,36.7593331 160.552999,36.6940004 160.707,36.61 C160.861001,36.5259996 160.984666,36.4256672 161.078,36.309 C161.171334,36.1923327 161.218,36.0640007 161.218,35.924 Z M167.056,36.106 C167.056,35.7326648 167.130666,35.4060014 167.28,35.126 C167.429334,34.8459986 167.634665,34.608001 167.896,34.412 C168.157335,34.215999 168.462998,34.0573339 168.813,33.936 C169.163002,33.8146661 169.533998,33.7213337 169.926,33.656 L171.9,33.334 L171.9,33.152 C171.9,32.6759976 171.743668,32.3190012 171.431,32.081 C171.118332,31.8429988 170.728669,31.724 170.262,31.724 C169.851331,31.724 169.541001,31.7986659 169.331,31.948 C169.120999,32.0973341 168.941334,32.2746656 168.792,32.48 C168.736,32.554667 168.675334,32.6059999 168.61,32.634 C168.544666,32.6620001 168.456001,32.676 168.344,32.676 L167.924,32.676 C167.821333,32.676 167.730334,32.638667 167.651,32.564 C167.571666,32.489333 167.536667,32.4006672 167.546,32.298 C167.564667,32.0926656 167.646333,31.8826677 167.791,31.668 C167.935667,31.4533323 168.131665,31.2620008 168.379,31.094 C168.626335,30.9259992 168.910998,30.7883339 169.233,30.681 C169.555002,30.5736661 169.897998,30.52 170.262,30.52 C170.682002,30.52 171.071665,30.5806661 171.431,30.702 C171.790335,30.8233339 172.098332,31.0006655 172.355,31.234 C172.611668,31.4673345 172.812333,31.7566649 172.957,32.102 C173.101667,32.4473351 173.174,32.8439978 173.174,33.292 L173.174,37.562 C173.174,37.6646672 173.136667,37.753333 173.062,37.828 C172.987333,37.902667 172.898667,37.94 172.796,37.94 L172.278,37.94 C172.175333,37.94 172.086667,37.902667 172.012,37.828 C171.937333,37.753333 171.9,37.6646672 171.9,37.562 L171.9,36.988 C171.816,37.1653342 171.685334,37.321666 171.508,37.457 C171.330666,37.592334 171.127668,37.7066662 170.899,37.8 C170.670332,37.8933338 170.432335,37.9633331 170.185,38.01 C169.937665,38.0566669 169.706668,38.08 169.492,38.08 C169.127998,38.08 168.794335,38.0286672 168.491,37.926 C168.187665,37.8233328 167.931001,37.6856675 167.721,37.513 C167.510999,37.3403325 167.347667,37.1326679 167.231,36.89 C167.114333,36.6473321 167.056,36.3860014 167.056,36.106 Z M169.632,36.876 C169.968002,36.876 170.275999,36.8246672 170.556,36.722 C170.836001,36.6193328 171.076332,36.4770009 171.277,36.295 C171.477668,36.1129991 171.631666,35.8960013 171.739,35.644 C171.846334,35.3919987 171.9,35.1120015 171.9,34.804 L171.9,34.454 L170.248,34.72 C169.659997,34.8133338 169.193335,34.9626656 168.848,35.168 C168.502665,35.3733344 168.33,35.6393317 168.33,35.966 C168.33,36.0686672 168.353333,36.1713328 168.4,36.274 C168.446667,36.3766672 168.521333,36.4746662 168.624,36.568 C168.726667,36.6613338 168.859666,36.7359997 169.023,36.792 C169.186334,36.8480003 169.389332,36.876 169.632,36.876 Z M174.868,33.838 C174.896,33.3246641 174.993999,32.8626687 175.162,32.452 C175.330001,32.0413313 175.553999,31.6936681 175.834,31.409 C176.114001,31.1243319 176.442998,30.9050008 176.821,30.751 C177.199002,30.5969992 177.607331,30.52 178.046,30.52 C178.62467,30.52 179.086665,30.6203323 179.432,30.821 C179.777335,31.0216677 180.038666,31.2386655 180.216,31.472 L180.216,31.038 C180.216,30.9353328 180.253333,30.846667 180.328,30.772 C180.402667,30.697333 180.491333,30.66 180.594,30.66 L181.112,30.66 C181.214667,30.66 181.303333,30.697333 181.378,30.772 C181.452667,30.846667 181.49,30.9353328 181.49,31.038 L181.49,37.842 C181.49,38.8126715 181.214669,39.5849971 180.664,40.159 C180.113331,40.7330029 179.287339,41.02 178.186,41.02 C177.625997,41.02 177.147669,40.952334 176.751,40.817 C176.354331,40.681666 176.027668,40.5113344 175.771,40.306 C175.514332,40.1006656 175.323001,39.8766679 175.197,39.634 C175.070999,39.3913321 175.003333,39.1580011 174.994,38.934 C174.984667,38.8313328 175.019666,38.742667 175.099,38.668 C175.178334,38.593333 175.269333,38.556 175.372,38.556 L175.792,38.556 C175.894667,38.556 175.981,38.5816664 176.051,38.633 C176.121,38.6843336 176.188666,38.7846659 176.254,38.934 C176.282,38.9900003 176.326333,39.0669995 176.387,39.165 C176.447667,39.2630005 176.545666,39.3609995 176.681,39.459 C176.816334,39.5570005 176.993666,39.6409996 177.213,39.711 C177.432334,39.7810003 177.709998,39.816 178.046,39.816 C178.354002,39.816 178.640999,39.785667 178.907,39.725 C179.173001,39.664333 179.403999,39.5640007 179.6,39.424 C179.796001,39.2839993 179.947666,39.0973345 180.055,38.864 C180.162334,38.6306655 180.216,38.3460017 180.216,38.01 L180.216,37.128 C180.029332,37.3800013 179.763335,37.6016657 179.418,37.793 C179.072665,37.9843343 178.615336,38.08 178.046,38.08 C177.607331,38.08 177.199002,38.0030008 176.821,37.849 C176.442998,37.6949992 176.114001,37.4756681 175.834,37.191 C175.553999,36.9063319 175.330001,36.5586687 175.162,36.148 C174.993999,35.7373313 174.896,35.2753359 174.868,34.762 C174.858667,34.6219993 174.854,34.4680008 174.854,34.3 C174.854,34.1319992 174.858667,33.9780007 174.868,33.838 Z M180.216,33.796 C180.188,33.13333 179.989669,32.6223351 179.621,32.263 C179.252331,31.9036649 178.774003,31.724 178.186,31.724 C177.569997,31.724 177.084668,31.919998 176.73,32.312 C176.375332,32.704002 176.179334,33.2359966 176.142,33.908 C176.132667,34.1693346 176.132667,34.4306654 176.142,34.692 C176.179334,35.3640034 176.375332,35.895998 176.73,36.288 C177.084668,36.680002 177.569997,36.876 178.186,36.876 C178.774003,36.876 179.252331,36.6940018 179.621,36.33 C179.989669,35.9659982 180.188,35.4573366 180.216,34.804 C180.225333,34.6639993 180.23,34.496001 180.23,34.3 C180.23,34.103999 180.225333,33.9360007 180.216,33.796 Z M186.572,30.52 C187.076003,30.52 187.523998,30.5969992 187.916,30.751 C188.308002,30.9050008 188.643999,31.117332 188.924,31.388 C189.204001,31.658668 189.425666,31.9876647 189.589,32.375 C189.752334,32.7623353 189.852666,33.1846644 189.89,33.642 C189.899333,33.7260004 189.904,33.8263327 189.904,33.943 L189.904,34.671 C189.904,34.7876672 189.899333,34.883333 189.89,34.958 C189.843333,35.424669 189.740667,35.8493314 189.582,36.232 C189.423333,36.6146686 189.204001,36.941332 188.924,37.212 C188.643999,37.482668 188.308002,37.6949992 187.916,37.849 C187.523998,38.0030008 187.076003,38.08 186.572,38.08 C186.067997,38.08 185.620002,38.0030008 185.228,37.849 C184.835998,37.6949992 184.500001,37.482668 184.22,37.212 C183.939999,36.941332 183.718334,36.6146686 183.555,36.232 C183.391666,35.8493314 183.291334,35.424669 183.254,34.958 C183.244667,34.883333 183.237667,34.7876672 183.233,34.671 C183.228333,34.5543328 183.226,34.4330006 183.226,34.307 C183.226,34.1809994 183.228333,34.0596672 183.233,33.943 C183.237667,33.8263327 183.244667,33.7260004 183.254,33.642 C183.291334,33.1846644 183.391666,32.7623353 183.555,32.375 C183.718334,31.9876647 183.939999,31.658668 184.22,31.388 C184.500001,31.117332 184.835998,30.9050008 185.228,30.751 C185.620002,30.5969992 186.067997,30.52 186.572,30.52 Z M188.616,34.888 C188.634667,34.7293325 188.644,34.5356678 188.644,34.307 C188.644,34.0783322 188.634667,33.8800008 188.616,33.712 C188.588,33.4319986 188.527334,33.1706679 188.434,32.928 C188.340666,32.6853321 188.210001,32.4753342 188.042,32.298 C187.873999,32.1206658 187.668668,31.9806672 187.426,31.878 C187.183332,31.7753328 186.898668,31.724 186.572,31.724 C186.245332,31.724 185.960668,31.7753328 185.718,31.878 C185.475332,31.9806672 185.270001,32.1206658 185.102,32.298 C184.933999,32.4753342 184.803334,32.6853321 184.71,32.928 C184.616666,33.1706679 184.556,33.4319986 184.528,33.712 C184.509333,33.8800008 184.5,34.0783322 184.5,34.307 C184.5,34.5356678 184.509333,34.7293325 184.528,34.888 C184.556,35.1680014 184.616666,35.4293321 184.71,35.672 C184.803334,35.9146679 184.933999,36.1246658 185.102,36.302 C185.270001,36.4793342 185.475332,36.6193328 185.718,36.722 C185.960668,36.8246672 186.245332,36.876 186.572,36.876 C186.898668,36.876 187.183332,36.8246672 187.426,36.722 C187.668668,36.6193328 187.873999,36.4793342 188.042,36.302 C188.210001,36.1246658 188.340666,35.9146679 188.434,35.672 C188.527334,35.4293321 188.588,35.1680014 188.616,34.888 Z" id="Started-4-hours-ago" fill="#22284A" opacity="0.6"></path>
                        </g>
                    </g>
                </g>
            </g>
        </g>
    </g>
</svg>