<?xml version="1.0" encoding="UTF-8"?>
<svg width="38px" height="38px" viewBox="0 0 38 38" version="1.1" xmlns="http://www.w3.org/2000/svg" xmlns:xlink="http://www.w3.org/1999/xlink">
    <!-- Generator: Sketch 51.3 (57544) - http://www.bohemiancoding.com/sketch -->
    <title>Slack_Mark</title>
    <desc>Created with Sketch.</desc>
    <defs></defs>
    <g id="Page-1" stroke="none" stroke-width="1" fill="none" fill-rule="evenodd">
        <g id="Home-Copy" transform="translate(-519.000000, -4067.000000)" fill-rule="nonzero">
            <g id="features" transform="translate(81.000000, 2230.000000)">
                <g id="orchestrate" transform="translate(11.000000, 1526.000000)">
                    <g id="orchestrate-graphic">
                        <g id="Group-45" transform="translate(386.000000, 292.000000)">
                            <g id="Group-44" transform="translate(22.000000, 0.000000)">
                                <g id="Slack_Mark" transform="translate(19.000000, 19.000000)">
                                    <g id="Group" transform="translate(0.000000, 20.000000)" fill="#E01E5A">
                                        <path d="M8.05423729,4.02711864 C8.05423729,6.19322034 6.28474576,7.96271186 4.11864407,7.96271186 C1.95254237,7.96271186 0.183050847,6.19322034 0.183050847,4.02711864 C0.183050847,1.86101695 1.95254237,0.0915254237 4.11864407,0.0915254237 L8.05423729,0.0915254237 L8.05423729,4.02711864 Z" id="Shape"></path>
                                        <path d="M10.0372881,4.02711864 C10.0372881,1.86101695 11.8067797,0.0915254237 13.9728814,0.0915254237 C16.1389831,0.0915254237 17.9084746,1.86101695 17.9084746,4.02711864 L17.9084746,13.8813559 C17.9084746,16.0474576 16.1389831,17.8169492 13.9728814,17.8169492 C11.8067797,17.8169492 10.0372881,16.0474576 10.0372881,13.8813559 L10.0372881,4.02711864 Z" id="Shape"></path>
                                    </g>
                                    <g id="Group" fill="#36C5F0">
                                        <path d="M13.9728814,8.05423729 C11.8067797,8.05423729 10.0372881,6.28474576 10.0372881,4.11864407 C10.0372881,1.95254237 11.8067797,0.183050847 13.9728814,0.183050847 C16.1389831,0.183050847 17.9084746,1.95254237 17.9084746,4.11864407 L17.9084746,8.05423729 L13.9728814,8.05423729 Z" id="Shape"></path>
                                        <path d="M13.9728814,10.0372881 C16.1389831,10.0372881 17.9084746,11.8067797 17.9084746,13.9728814 C17.9084746,16.1389831 16.1389831,17.9084746 13.9728814,17.9084746 L4.11864407,17.9084746 C1.95254237,17.9084746 0.183050847,16.1389831 0.183050847,13.9728814 C0.183050847,11.8067797 1.95254237,10.0372881 4.11864407,10.0372881 L13.9728814,10.0372881 Z" id="Shape"></path>
                                    </g>
                                    <g id="Group" transform="translate(20.000000, 0.000000)" fill="#2EB67D">
                                        <path d="M9.94576271,13.9728814 C9.94576271,11.8067797 11.7152542,10.0372881 13.8813559,10.0372881 C16.0474576,10.0372881 17.8169492,11.8067797 17.8169492,13.9728814 C17.8169492,16.1389831 16.0474576,17.9084746 13.8813559,17.9084746 L9.94576271,17.9084746 L9.94576271,13.9728814 Z" id="Shape"></path>
                                        <path d="M7.96271186,13.9728814 C7.96271186,16.1389831 6.19322034,17.9084746 4.02711864,17.9084746 C1.86101695,17.9084746 0.0915254237,16.1389831 0.0915254237,13.9728814 L0.0915254237,4.11864407 C0.0915254237,1.95254237 1.86101695,0.183050847 4.02711864,0.183050847 C6.19322034,0.183050847 7.96271186,1.95254237 7.96271186,4.11864407 L7.96271186,13.9728814 Z" id="Shape"></path>
                                    </g>
                                    <g id="Group" transform="translate(20.000000, 20.000000)" fill="#ECB22E">
                                        <path d="M4.02711864,9.94576271 C6.19322034,9.94576271 7.96271186,11.7152542 7.96271186,13.8813559 C7.96271186,16.0474576 6.19322034,17.8169492 4.02711864,17.8169492 C1.86101695,17.8169492 0.0915254237,16.0474576 0.0915254237,13.8813559 L0.0915254237,9.94576271 L4.02711864,9.94576271 Z" id="Shape"></path>
                                        <path d="M4.02711864,7.96271186 C1.86101695,7.96271186 0.0915254237,6.19322034 0.0915254237,4.02711864 C0.0915254237,1.86101695 1.86101695,0.0915254237 4.02711864,0.0915254237 L13.8813559,0.0915254237 C16.0474576,0.0915254237 17.8169492,1.86101695 17.8169492,4.02711864 C17.8169492,6.19322034 16.0474576,7.96271186 13.8813559,7.96271186 L4.02711864,7.96271186 Z" id="Shape"></path>
                                    </g>
                                </g>
                            </g>
                        </g>
                    </g>
                </g>
            </g>
        </g>
    </g>
</svg>